export default {"glyphs":{"0":{"ha":939,"x_min":0,"x_max":0,"o":"m 469 189 b 304 488 368 189 304 279 b 469 786 304 696 368 786 b 635 488 571 786 635 696 b 469 189 635 279 571 189 z m 469 992 b 72 488 222 992 72 789 b 469 -17 72 186 222 -17 b 867 488 717 -17 867 186 b 469 992 867 789 717 992 z "},"1":{"ha":676,"x_min":0,"x_max":0,"o":"m 513 975 l 308 975 l 78 918 l 78 714 l 282 763 l 282 0 l 513 0 z "},"2":{"ha":888,"x_min":0,"x_max":0,"o":"m 336 672 b 440 786 342 746 381 786 b 542 681 504 786 542 744 b 414 471 542 614 508 564 l 131 194 l 131 0 l 782 0 l 782 204 l 443 204 l 615 374 b 774 683 718 475 774 575 b 443 992 774 867 643 992 b 103 672 238 992 115 868 z "},"3":{"ha":886,"x_min":0,"x_max":0,"o":"m 347 393 l 453 393 b 564 296 519 393 564 350 b 451 189 564 232 519 189 b 326 296 369 189 331 228 l 94 296 b 450 -17 103 96 235 -17 b 796 279 681 -17 796 128 b 663 490 796 375 743 458 b 782 694 735 524 782 601 b 450 992 782 854 665 992 b 108 686 229 992 115 869 l 340 686 b 449 786 344 746 378 786 b 550 685 513 786 550 740 b 450 585 550 622 510 585 l 347 585 z "},"4":{"ha":871,"x_min":0,"x_max":0,"o":"m 715 975 l 467 975 l 67 371 l 67 178 l 488 178 l 488 0 l 715 0 l 715 178 l 817 178 l 817 382 l 715 382 z m 293 382 l 488 674 l 488 382 z "},"5":{"ha":893,"x_min":0,"x_max":0,"o":"m 146 408 l 349 375 b 461 449 367 418 404 449 b 578 322 531 449 578 400 b 463 189 578 239 529 189 b 340 297 393 189 350 229 l 108 297 b 461 -17 122 104 254 -17 b 810 315 681 -17 810 126 b 500 647 810 513 683 647 b 386 619 450 647 407 635 l 392 771 l 763 771 l 763 975 l 165 975 z "},"6":{"ha":900,"x_min":0,"x_max":0,"o":"m 450 -17 b 822 324 674 -17 822 139 b 467 660 822 506 671 660 l 667 975 l 428 975 l 142 526 b 78 324 104 467 78 390 b 450 -17 78 139 226 -17 z m 450 189 b 310 324 371 189 310 244 b 450 458 310 403 371 458 b 590 324 529 458 590 403 b 450 189 590 244 529 189 z "},"7":{"ha":853,"x_min":0,"x_max":0,"o":"m 521 771 l 214 0 l 456 0 l 763 789 l 763 975 l 85 975 l 85 771 z "},"8":{"ha":906,"x_min":0,"x_max":0,"o":"m 453 786 b 563 700 517 786 563 751 b 453 614 563 649 517 614 b 343 700 389 614 343 649 b 453 786 343 751 389 786 z m 453 422 b 599 306 542 422 599 372 b 453 189 599 239 542 189 b 307 306 364 189 307 239 b 453 422 307 372 364 422 z m 453 -17 b 831 283 664 -17 831 99 b 657 522 831 393 754 489 b 789 725 732 557 789 633 b 453 992 789 872 661 992 b 117 725 244 992 117 872 b 249 522 117 633 174 557 b 75 283 151 489 75 393 b 453 -17 75 99 242 -17 z "},"9":{"ha":900,"x_min":0,"x_max":0,"o":"m 450 992 b 78 651 226 992 78 836 b 433 315 78 469 229 315 l 233 0 l 472 0 l 758 449 b 822 651 796 508 822 585 b 450 992 822 836 674 992 z m 450 786 b 590 651 529 786 590 731 b 450 517 590 572 529 517 b 310 651 371 517 310 572 b 450 786 310 731 371 786 z "}," ":{"ha":375,"x_min":0,"x_max":0,"o":""},"!":{"ha":486,"x_min":0,"x_max":0,"o":"m 356 306 l 360 975 l 126 975 l 131 306 z m 376 115 b 243 247 376 188 315 247 b 110 115 171 247 110 188 b 243 -17 110 43 171 -17 b 376 115 315 -17 376 43 z "},"\"":{"ha":649,"x_min":0,"x_max":0,"o":"m 269 610 l 281 975 l 92 975 l 103 610 z m 546 610 l 557 975 l 368 975 l 379 610 z "},"#":{"ha":985,"x_min":0,"x_max":0,"o":"m 86 569 l 235 569 l 235 406 l 86 406 l 86 229 l 235 229 l 235 0 l 426 0 l 426 229 l 558 229 l 558 0 l 750 0 l 750 229 l 899 229 l 899 406 l 750 406 l 750 569 l 899 569 l 899 746 l 750 746 l 750 975 l 558 975 l 558 746 l 426 746 l 426 975 l 235 975 l 235 746 l 86 746 z m 426 569 l 558 569 l 558 406 l 426 406 z "},"$":{"ha":1015,"x_min":0,"x_max":0,"o":"m 669 285 b 524 178 669 229 622 178 b 353 294 431 178 368 219 l 118 294 b 410 -6 139 140 242 29 l 410 -142 l 629 -142 l 629 -7 b 901 300 811 28 901 154 b 546 597 901 476 783 572 b 360 707 400 613 360 647 b 494 797 360 756 404 797 b 646 681 579 797 638 750 l 881 681 b 610 979 867 831 771 943 l 610 1117 l 390 1117 l 390 982 b 128 701 222 950 128 833 b 482 400 128 522 242 426 b 669 285 639 383 669 347 z "},"%":{"ha":1321,"x_min":0,"x_max":0,"o":"m 1001 975 l 818 975 l 319 0 l 503 0 z m 321 992 b 69 750 186 992 69 885 b 321 508 69 615 186 508 b 572 750 456 508 572 615 b 321 992 572 885 456 992 z m 321 828 b 399 750 363 828 399 793 b 321 672 399 707 363 672 b 243 750 279 672 243 707 b 321 828 243 793 279 828 z m 1000 -17 b 1251 225 1135 -17 1251 90 b 1000 467 1251 360 1135 467 b 749 225 865 467 749 360 b 1000 -17 749 90 865 -17 z m 1000 147 b 922 225 958 147 922 182 b 1000 303 922 268 958 303 b 1078 225 1042 303 1078 268 b 1000 147 1078 182 1042 147 z "},"&":{"ha":994,"x_min":0,"x_max":0,"o":"m 429 992 b 139 735 249 992 139 879 b 219 528 139 661 158 603 b 74 286 122 468 74 393 b 436 -17 74 111 219 -17 b 676 58 525 -17 619 10 l 729 0 l 1008 0 l 813 200 b 883 481 858 279 883 375 l 651 481 b 640 378 651 443 647 408 l 535 488 b 719 735 672 560 719 628 b 429 992 719 879 610 992 z m 306 290 b 351 389 306 329 319 361 l 529 206 b 440 181 508 190 472 181 b 306 290 358 181 306 225 z m 503 726 b 406 622 503 689 476 658 b 356 726 369 664 356 693 b 429 801 356 769 385 801 b 503 726 476 801 503 768 z "},"'":{"ha":372,"x_min":0,"x_max":0,"o":"m 269 610 l 281 975 l 92 975 l 103 610 z "},"(":{"ha":568,"x_min":0,"x_max":0,"o":"m 125 442 b 301 -133 125 219 192 10 l 518 -133 b 342 442 404 24 342 225 b 518 1017 342 658 404 860 l 301 1017 b 125 442 192 874 125 664 z "},")":{"ha":568,"x_min":0,"x_max":0,"o":"m 443 442 b 267 1017 443 664 376 874 l 50 1017 b 226 442 164 860 226 658 b 50 -133 226 225 164 24 l 267 -133 b 443 442 376 10 443 219 z "},"*":{"ha":606,"x_min":0,"x_max":0,"o":"m 372 528 l 496 617 l 403 721 l 542 753 l 494 897 l 367 842 l 379 975 l 226 975 l 239 842 l 111 897 l 64 753 l 201 721 l 110 617 l 233 528 l 303 643 z "},"+":{"ha":825,"x_min":0,"x_max":0,"o":"m 86 579 l 86 393 l 306 393 l 306 156 l 519 156 l 519 393 l 739 393 l 739 579 l 519 579 l 519 817 l 306 817 l 306 579 z "},",":{"ha":442,"x_min":0,"x_max":0,"o":"m 88 115 b 168 -6 88 63 121 15 l 113 -176 l 253 -176 l 342 56 b 354 115 349 74 354 99 b 221 247 354 188 294 247 b 88 115 149 247 88 188 z "},"-":{"ha":600,"x_min":0,"x_max":0,"o":"m 86 510 l 86 324 l 514 324 l 514 510 z "},".":{"ha":442,"x_min":0,"x_max":0,"o":"m 354 115 b 221 247 354 188 293 247 b 88 115 149 247 88 188 b 221 -17 88 43 149 -17 b 354 115 293 -17 354 43 z "},"/":{"ha":764,"x_min":0,"x_max":0,"o":"m 261 -28 l 725 1003 l 503 1003 l 39 -28 z "},":":{"ha":442,"x_min":0,"x_max":0,"o":"m 88 115 b 221 -17 88 44 149 -17 b 354 115 294 -17 354 44 b 221 247 354 188 294 247 b 88 115 149 247 88 188 z m 88 571 b 221 439 88 500 149 439 b 354 571 294 439 354 500 b 221 703 354 643 294 703 b 88 571 149 703 88 643 z "},";":{"ha":442,"x_min":0,"x_max":0,"o":"m 88 571 b 221 439 88 500 149 439 b 354 571 294 439 354 500 b 221 703 354 643 294 703 b 88 571 149 703 88 643 z m 88 115 b 168 -6 88 63 121 15 l 113 -176 l 253 -176 l 342 56 b 354 115 349 74 354 99 b 221 247 354 188 294 247 b 88 115 149 247 88 188 z "},"<":{"ha":825,"x_min":0,"x_max":0,"o":"m 707 131 l 707 329 l 346 486 l 707 642 l 707 842 l 118 579 l 118 393 z "},"=":{"ha":825,"x_min":0,"x_max":0,"o":"m 86 731 l 86 544 l 739 544 l 739 731 z m 86 428 l 86 242 l 739 242 l 739 428 z "},">":{"ha":825,"x_min":0,"x_max":0,"o":"m 707 393 l 707 579 l 118 842 l 118 642 l 479 486 l 118 329 l 118 131 z "},"?":{"ha":832,"x_min":0,"x_max":0,"o":"m 604 442 b 758 693 715 510 758 576 b 417 992 758 860 624 992 b 74 681 211 992 82 867 l 306 681 b 418 789 310 744 344 789 b 526 690 489 789 526 743 b 447 586 526 650 504 618 b 303 342 332 521 303 463 l 303 306 l 533 306 l 533 329 b 604 442 533 381 540 403 z m 551 115 b 418 247 551 188 490 247 b 285 115 346 247 285 188 b 418 -17 285 43 346 -17 b 551 115 490 -17 551 43 z "},"@":{"ha":1364,"x_min":0,"x_max":0,"o":"m 372 456 b 651 169 372 282 501 169 b 836 260 738 169 808 211 b 1031 169 872 206 944 169 b 1278 472 1190 169 1278 301 b 675 1033 1278 792 1028 1033 b 86 456 365 1033 86 808 b 675 -122 86 103 363 -122 b 882 -90 749 -122 832 -110 l 882 53 b 675 17 824 28 746 17 b 240 456 456 17 240 175 b 675 894 240 708 421 894 b 1124 472 933 894 1124 732 b 1042 311 1124 372 1092 311 b 968 426 993 311 968 350 l 968 728 l 803 728 l 803 693 l 799 693 b 651 742 769 724 711 742 b 372 456 501 742 372 629 z m 538 456 b 664 589 538 529 585 589 b 790 456 743 589 790 529 b 664 322 790 382 743 322 b 538 456 585 322 538 382 z "},"A":{"ha":992,"x_min":0,"x_max":0,"o":"m 368 975 l 11 0 l 260 0 l 325 194 l 665 194 l 732 0 l 981 0 l 624 975 z m 486 668 b 496 707 490 683 494 693 b 506 668 497 693 500 683 l 599 393 l 393 393 z "},"B":{"ha":914,"x_min":0,"x_max":0,"o":"m 508 0 b 860 288 732 0 860 111 b 671 508 860 400 781 486 b 819 708 756 535 819 610 b 501 975 819 867 711 975 l 114 975 l 114 0 z m 588 688 b 493 603 588 635 554 603 l 344 603 l 344 771 l 493 771 b 588 688 554 771 588 739 z m 628 307 b 525 204 628 240 586 204 l 344 204 l 344 410 l 525 410 b 628 307 586 410 628 374 z "},"C":{"ha":1136,"x_min":0,"x_max":0,"o":"m 64 488 b 582 -17 64 203 286 -17 b 1072 358 840 -17 1035 132 l 829 358 b 582 189 806 261 699 189 b 296 488 415 189 296 326 b 582 786 296 649 415 786 b 829 617 699 786 806 714 l 1072 617 b 582 992 1035 843 840 992 b 64 488 286 992 64 772 z "},"D":{"ha":1064,"x_min":0,"x_max":0,"o":"m 479 0 b 1000 488 775 0 1000 193 b 479 975 1000 782 775 975 l 114 975 l 114 0 z m 768 488 b 479 204 768 317 646 204 l 344 204 l 344 771 l 479 771 b 768 488 646 771 768 658 z "},"E":{"ha":882,"x_min":0,"x_max":0,"o":"m 114 0 l 801 0 l 801 204 l 344 204 l 344 397 l 767 397 l 767 596 l 344 596 l 344 771 l 788 771 l 788 975 l 114 975 z "},"F":{"ha":850,"x_min":0,"x_max":0,"o":"m 114 975 l 114 0 l 344 0 l 344 364 l 763 364 l 763 563 l 344 563 l 344 771 l 788 771 l 788 975 z "},"G":{"ha":1136,"x_min":0,"x_max":0,"o":"m 1065 643 b 582 992 1025 853 824 992 b 64 488 286 992 64 772 b 588 -17 64 203 286 -17 b 1072 415 889 -17 1072 178 l 1072 544 l 581 544 l 581 367 l 829 367 b 590 189 824 269 729 189 b 296 488 421 189 296 319 b 582 786 296 649 415 786 b 819 643 697 786 792 719 z "},"H":{"ha":1022,"x_min":0,"x_max":0,"o":"m 678 597 l 344 597 l 344 975 l 114 975 l 114 0 l 344 0 l 344 393 l 678 393 l 678 0 l 908 0 l 908 975 l 678 975 z "},"I":{"ha":458,"x_min":0,"x_max":0,"o":"m 114 0 l 344 0 l 344 975 l 114 975 z "},"J":{"ha":807,"x_min":0,"x_max":0,"o":"m 368 -17 b 699 288 565 -17 699 106 l 699 975 l 468 975 l 468 288 b 368 188 468 225 432 188 b 268 288 304 188 268 225 l 268 322 l 38 322 l 38 288 b 368 -17 38 106 171 -17 z "},"K":{"ha":936,"x_min":0,"x_max":0,"o":"m 344 975 l 114 975 l 114 0 l 344 0 l 344 436 l 653 0 l 926 0 l 567 497 l 881 975 l 621 975 l 344 547 z "},"L":{"ha":821,"x_min":0,"x_max":0,"o":"m 344 975 l 114 975 l 114 0 l 810 0 l 810 204 l 344 204 z "},"M":{"ha":1317,"x_min":0,"x_max":0,"o":"m 764 153 l 954 604 b 978 672 965 628 974 649 l 978 0 l 1203 0 l 1203 975 l 897 975 l 671 438 b 658 396 665 424 661 410 b 646 438 656 410 651 424 l 419 975 l 114 975 l 114 0 l 339 0 l 339 672 b 363 604 343 649 351 628 l 553 153 z "},"N":{"ha":1032,"x_min":0,"x_max":0,"o":"m 344 975 l 114 975 l 114 0 l 344 0 l 344 590 b 368 532 349 568 356 551 l 688 0 l 918 0 l 918 975 l 688 975 l 688 383 b 664 443 683 406 676 422 z "},"O":{"ha":1164,"x_min":0,"x_max":0,"o":"m 582 189 b 296 488 415 189 296 326 b 582 786 296 649 415 786 b 868 488 749 786 868 649 b 582 189 868 326 749 189 z m 582 992 b 64 488 286 992 64 772 b 582 -17 64 203 286 -17 b 1100 488 878 -17 1100 203 b 582 992 1100 772 878 992 z "},"P":{"ha":906,"x_min":0,"x_max":0,"o":"m 476 347 b 856 661 708 347 856 458 b 476 975 856 864 708 975 l 114 975 l 114 0 l 344 0 l 344 347 z m 624 661 b 479 538 624 581 574 538 l 344 538 l 344 785 l 479 785 b 624 661 574 785 624 742 z "},"Q":{"ha":1164,"x_min":0,"x_max":0,"o":"m 582 992 b 64 488 286 992 64 772 b 582 -17 64 203 286 -17 b 838 46 676 -17 763 6 l 946 -62 l 1089 75 l 992 172 b 1100 488 1060 257 1100 367 b 582 992 1100 772 878 992 z m 582 189 b 296 488 415 189 296 326 b 582 786 296 649 415 786 b 868 488 749 786 868 649 b 828 335 868 432 853 379 l 701 461 l 558 324 l 678 204 b 582 189 647 194 615 189 z "},"R":{"ha":939,"x_min":0,"x_max":0,"o":"m 628 0 l 878 0 l 660 403 b 856 675 783 447 856 540 b 476 975 856 867 708 975 l 114 975 l 114 0 l 344 0 l 344 375 l 438 375 z m 624 675 b 479 565 624 606 574 565 l 344 565 l 344 785 l 479 785 b 624 675 574 785 624 744 z "},"S":{"ha":922,"x_min":0,"x_max":0,"o":"m 625 285 b 479 178 625 229 578 178 b 308 294 386 178 324 219 l 74 294 b 481 -17 99 108 246 -17 b 857 300 732 -17 857 129 b 501 597 857 476 739 572 b 315 707 356 613 315 647 b 450 797 315 756 360 797 b 601 681 535 797 593 750 l 836 681 b 444 992 819 865 679 992 b 83 701 215 992 83 858 b 438 400 83 522 197 426 b 625 285 594 383 625 347 z "},"T":{"ha":875,"x_min":0,"x_max":0,"o":"m 32 975 l 32 771 l 322 771 l 322 0 l 553 0 l 553 771 l 843 771 l 843 975 z "},"U":{"ha":1025,"x_min":0,"x_max":0,"o":"m 513 -17 b 917 383 763 -17 917 129 l 917 975 l 686 975 l 686 393 b 513 188 686 261 629 188 b 339 393 396 188 339 261 l 339 975 l 108 975 l 108 383 b 513 -17 108 129 263 -17 z "},"V":{"ha":1047,"x_min":0,"x_max":0,"o":"m 651 0 l 1008 975 l 760 975 l 533 307 b 524 263 528 290 525 278 b 514 307 522 278 518 290 l 288 975 l 39 975 l 396 0 z "},"W":{"ha":1483,"x_min":0,"x_max":0,"o":"m 594 975 l 449 329 b 442 283 446 315 443 300 b 435 329 440 300 438 315 l 285 975 l 40 975 l 290 0 l 585 0 l 733 657 b 742 711 738 674 740 692 b 750 657 743 692 746 674 l 899 0 l 1193 0 l 1443 975 l 1199 975 l 1049 329 b 1042 281 1046 315 1043 299 b 1035 329 1040 299 1038 315 l 889 975 z "},"X":{"ha":997,"x_min":0,"x_max":0,"o":"m 707 0 l 964 0 l 632 494 l 950 975 l 697 975 l 499 665 l 300 975 l 47 975 l 365 494 l 33 0 l 290 0 l 499 322 z "},"Y":{"ha":978,"x_min":0,"x_max":0,"o":"m 604 0 l 604 336 l 950 975 l 711 975 l 489 553 l 267 975 l 28 975 l 374 336 l 374 0 z "},"Z":{"ha":886,"x_min":0,"x_max":0,"o":"m 64 193 l 64 0 l 817 0 l 817 204 l 363 204 l 801 782 l 801 975 l 75 975 l 75 771 l 503 771 z "},"[":{"ha":578,"x_min":0,"x_max":0,"o":"m 350 844 l 506 844 l 506 1017 l 133 1017 l 133 -133 l 506 -133 l 506 39 l 350 39 z "},"\\":{"ha":764,"x_min":0,"x_max":0,"o":"m 725 -28 l 261 1003 l 39 1003 l 503 -28 z "},"]":{"ha":578,"x_min":0,"x_max":0,"o":"m 228 39 l 72 39 l 72 -133 l 444 -133 l 444 1017 l 72 1017 l 72 844 l 228 844 z "},"^":{"ha":667,"x_min":0,"x_max":0,"o":"m 246 975 l 47 636 l 239 636 l 333 796 l 428 636 l 619 636 l 421 975 z "},"_":{"ha":500,"x_min":0,"x_max":0,"o":"m 0 -35 l 0 -182 l 500 -182 l 500 -35 z "},"a":{"ha":917,"x_min":0,"x_max":0,"o":"m 56 343 b 408 -17 56 124 219 -17 b 600 58 485 -17 567 14 l 600 0 l 821 0 l 821 686 l 600 686 l 600 628 b 408 703 567 672 485 703 b 56 343 219 703 56 563 z m 278 343 b 439 510 278 439 346 510 b 600 343 532 510 600 439 b 439 176 600 247 532 176 b 278 343 346 176 278 247 z "},"b":{"ha":917,"x_min":0,"x_max":0,"o":"m 861 343 b 508 703 861 563 697 703 b 317 628 432 703 351 672 l 317 1003 l 96 1003 l 96 0 l 317 0 l 317 58 b 508 -17 351 14 432 -17 b 861 343 697 -17 861 124 z m 478 176 b 317 343 386 176 317 247 b 478 510 317 439 386 510 b 639 343 569 510 639 439 b 478 176 639 247 569 176 z "},"c":{"ha":858,"x_min":0,"x_max":0,"o":"m 56 343 b 436 -17 56 143 215 -17 b 803 275 635 -17 782 115 l 571 275 b 436 176 556 219 506 176 b 278 343 346 176 278 247 b 436 510 278 439 346 510 b 571 411 506 510 556 467 l 803 411 b 436 703 782 571 635 703 b 56 343 215 703 56 543 z "},"d":{"ha":917,"x_min":0,"x_max":0,"o":"m 56 343 b 408 -17 56 124 219 -17 b 600 58 485 -17 565 14 l 600 0 l 821 0 l 821 1003 l 600 1003 l 600 628 b 408 703 565 672 485 703 b 56 343 219 703 56 563 z m 439 176 b 278 343 347 176 278 247 b 439 510 278 439 347 510 b 600 343 531 510 600 439 b 439 176 600 247 531 176 z "},"e":{"ha":858,"x_min":0,"x_max":0,"o":"m 803 343 b 429 703 803 540 650 703 b 56 343 208 703 56 540 b 431 -17 56 139 215 -17 b 794 235 615 -17 765 89 l 563 235 b 431 165 542 194 499 165 b 279 290 349 165 292 213 l 800 290 b 803 343 801 304 803 325 z m 429 521 b 572 425 504 521 556 481 l 286 425 b 429 521 306 486 357 521 z "},"f":{"ha":596,"x_min":0,"x_max":0,"o":"m 446 1003 b 160 717 240 1003 160 911 l 160 686 l 44 686 l 44 494 l 160 494 l 160 0 l 381 0 l 381 494 l 551 494 l 551 686 l 381 686 l 381 717 b 493 811 381 782 415 811 b 550 810 511 811 533 811 l 550 997 b 446 1003 522 1000 481 1003 z "},"g":{"ha":917,"x_min":0,"x_max":0,"o":"m 821 686 l 600 686 l 600 628 b 408 703 565 672 485 703 b 56 343 219 703 56 563 b 408 -17 56 124 219 -17 b 600 58 485 -17 565 14 l 600 21 b 458 -143 600 -82 546 -143 b 322 -71 390 -143 342 -112 l 93 -71 b 458 -317 125 -214 263 -317 b 821 29 688 -317 821 -175 z m 439 176 b 278 343 347 176 278 247 b 439 510 278 439 347 510 b 600 343 531 510 600 439 b 439 176 600 247 531 176 z "},"h":{"ha":842,"x_min":0,"x_max":0,"o":"m 751 443 b 497 703 751 600 650 703 b 317 618 415 703 346 665 l 317 1003 l 96 1003 l 96 0 l 317 0 l 317 358 b 436 510 317 463 371 510 b 531 404 492 510 531 472 l 531 0 l 751 0 z "},"i":{"ha":413,"x_min":0,"x_max":0,"o":"m 317 0 l 96 0 l 96 686 l 317 686 z m 72 881 b 206 749 72 810 133 749 b 339 881 279 749 339 810 b 206 1013 339 953 279 1013 b 72 881 133 1013 72 953 z "},"j":{"ha":413,"x_min":0,"x_max":0,"o":"m 317 -15 b 38 -289 317 -210 208 -289 l -44 -289 l -44 -97 l 0 -97 b 96 1 58 -97 96 -69 l 96 686 l 317 686 z m 72 881 b 206 749 72 810 133 749 b 339 881 279 749 339 810 b 206 1013 339 953 279 1013 b 72 881 133 1013 72 953 z "},"k":{"ha":769,"x_min":0,"x_max":0,"o":"m 317 1003 l 96 1003 l 96 0 l 317 0 l 317 300 l 515 0 l 754 0 l 519 351 l 717 686 l 478 686 l 317 400 z "},"l":{"ha":497,"x_min":0,"x_max":0,"o":"m 354 0 b 458 6 389 0 431 3 l 458 193 b 401 192 442 192 419 192 b 310 286 338 192 310 221 l 310 1003 l 89 1003 l 89 286 b 354 0 89 92 157 0 z "},"m":{"ha":1232,"x_min":0,"x_max":0,"o":"m 729 358 b 838 510 729 463 781 510 b 921 404 885 510 921 472 l 921 0 l 1142 0 l 1142 443 b 892 703 1142 600 1043 703 b 685 608 801 703 729 665 b 493 703 647 669 578 703 b 317 618 415 703 349 665 l 317 686 l 96 686 l 96 0 l 317 0 l 317 358 b 425 510 317 463 368 510 b 508 404 472 510 508 472 l 508 0 l 729 0 z "},"n":{"ha":842,"x_min":0,"x_max":0,"o":"m 751 443 b 497 703 751 600 650 703 b 317 618 415 703 346 665 l 317 686 l 96 686 l 96 0 l 317 0 l 317 358 b 436 510 317 463 371 510 b 531 404 492 510 531 472 l 531 0 l 751 0 z "},"o":{"ha":878,"x_min":0,"x_max":0,"o":"m 439 703 b 56 343 215 703 56 543 b 439 -17 56 143 215 -17 b 822 343 663 -17 822 143 b 439 703 822 543 663 703 z m 439 176 b 278 343 347 176 278 247 b 439 510 278 439 347 510 b 600 343 531 510 600 439 b 439 176 600 247 531 176 z "},"p":{"ha":917,"x_min":0,"x_max":0,"o":"m 861 343 b 508 703 861 563 697 703 b 317 628 432 703 351 672 l 317 686 l 96 686 l 96 -317 l 317 -317 l 317 58 b 508 -17 351 14 432 -17 b 861 343 697 -17 861 124 z m 478 176 b 317 343 386 176 317 247 b 478 510 317 439 386 510 b 639 343 569 510 639 439 b 478 176 639 247 569 176 z "},"q":{"ha":917,"x_min":0,"x_max":0,"o":"m 56 343 b 408 -17 56 124 219 -17 b 600 58 485 -17 565 14 l 600 -317 l 821 -317 l 821 686 l 600 686 l 600 628 b 408 703 565 672 485 703 b 56 343 219 703 56 563 z m 439 176 b 278 343 347 176 278 247 b 439 510 278 439 347 510 b 600 343 531 510 600 439 b 439 176 600 247 531 176 z "},"r":{"ha":601,"x_min":0,"x_max":0,"o":"m 560 699 b 507 703 544 701 525 703 b 317 578 404 703 339 654 l 317 686 l 96 686 l 96 0 l 317 0 l 317 254 b 519 510 317 429 394 510 b 560 507 532 510 551 508 z "},"s":{"ha":732,"x_min":0,"x_max":0,"o":"m 453 206 b 381 156 453 176 428 156 b 289 224 329 156 297 186 l 64 224 b 386 -17 85 83 189 -17 b 675 210 561 -17 675 86 b 396 429 675 344 592 410 b 289 485 314 438 289 456 b 354 531 289 508 308 531 b 435 465 404 531 429 501 l 656 465 b 350 703 643 599 546 703 b 69 485 167 703 69 594 b 349 260 69 350 153 279 b 453 206 431 251 453 236 z "},"t":{"ha":613,"x_min":0,"x_max":0,"o":"m 440 0 b 546 6 475 0 518 3 l 546 193 b 488 192 529 192 506 192 b 375 286 410 192 375 221 l 375 494 l 546 494 l 546 686 l 375 686 l 375 894 l 154 867 l 154 686 l 39 686 l 39 494 l 154 494 l 154 286 b 440 0 154 92 235 0 z "},"u":{"ha":842,"x_min":0,"x_max":0,"o":"m 90 243 b 344 -17 90 86 192 -17 b 525 68 426 -17 496 21 l 525 0 l 746 0 l 746 686 l 525 686 l 525 328 b 406 176 525 224 471 176 b 311 282 350 176 311 214 l 311 686 l 90 686 z "},"v":{"ha":808,"x_min":0,"x_max":0,"o":"m 547 686 l 413 297 b 404 260 408 283 406 272 b 396 297 403 272 400 283 l 261 686 l 33 686 l 293 0 l 515 0 l 775 686 z "},"w":{"ha":1153,"x_min":0,"x_max":0,"o":"m 465 686 l 368 326 b 360 283 364 313 361 300 b 353 326 358 299 357 311 l 261 686 l 36 686 l 239 0 l 461 0 l 568 393 b 576 433 572 407 575 418 b 585 393 578 418 581 407 l 692 0 l 914 0 l 1117 686 l 892 686 l 800 326 b 793 283 796 311 794 299 b 785 326 792 300 789 313 l 688 686 z "},"x":{"ha":778,"x_min":0,"x_max":0,"o":"m 513 0 l 746 0 l 513 349 l 732 686 l 500 686 l 389 506 l 278 686 l 46 686 l 265 349 l 32 0 l 265 0 l 389 175 z "},"y":{"ha":817,"x_min":0,"x_max":0,"o":"m 779 686 l 551 686 l 417 297 b 408 258 413 283 410 272 b 400 297 407 272 404 283 l 265 686 l 38 686 l 297 0 l 276 -56 b 167 -132 253 -117 225 -132 b 115 -129 151 -132 129 -131 l 115 -311 b 193 -317 139 -314 169 -317 b 475 -119 365 -317 424 -257 z "},"z":{"ha":728,"x_min":0,"x_max":0,"o":"m 661 192 l 347 192 l 647 501 l 647 686 l 71 686 l 71 494 l 364 494 l 64 185 l 64 0 l 661 0 z "},"{":{"ha":601,"x_min":0,"x_max":0,"o":"m 394 757 b 464 844 394 822 417 844 l 515 844 l 515 1017 l 425 1017 b 178 767 250 1017 178 946 l 178 663 b 86 528 178 564 146 538 l 86 356 b 178 221 146 346 178 319 l 178 117 b 425 -133 178 -62 250 -133 l 515 -133 l 515 39 l 464 39 b 394 126 417 39 394 61 l 394 222 b 286 442 394 365 351 419 b 394 661 351 464 394 518 z "},"|":{"ha":533,"x_min":0,"x_max":0,"o":"m 375 -147 l 375 1031 l 158 1031 l 158 -147 z "},"}":{"ha":601,"x_min":0,"x_max":0,"o":"m 207 661 b 315 442 207 518 250 464 b 207 222 250 419 207 365 l 207 126 b 138 39 207 61 185 39 l 86 39 l 86 -133 l 176 -133 b 424 117 351 -133 424 -62 l 424 221 b 515 356 424 319 456 346 l 515 528 b 424 663 456 538 424 564 l 424 767 b 176 1017 424 946 351 1017 l 86 1017 l 86 844 l 138 844 b 207 757 185 844 207 822 z "},"~":{"ha":825,"x_min":0,"x_max":0,"o":"m 554 344 b 746 621 672 344 743 432 l 551 621 b 501 547 546 561 528 547 b 271 628 450 547 393 628 b 79 351 153 628 82 540 l 274 351 b 324 425 279 411 297 425 b 554 344 375 425 432 344 z "},"¡":{"ha":486,"x_min":0,"x_max":0,"o":"m 131 381 l 126 -289 l 360 -289 l 356 381 z m 110 571 b 243 439 110 499 171 439 b 376 571 315 439 376 499 b 243 703 376 643 315 703 b 110 571 171 703 110 643 z "},"¢":{"ha":931,"x_min":0,"x_max":0,"o":"m 92 343 b 354 0 92 181 196 44 l 354 -133 l 574 -133 l 574 -4 b 839 275 719 32 821 143 l 607 275 b 472 176 592 219 542 176 b 314 343 382 176 314 247 b 472 510 314 439 382 510 b 607 411 542 510 592 467 l 839 411 b 574 690 821 542 719 654 l 574 819 l 354 819 l 354 686 b 92 343 196 640 92 506 z "},"£":{"ha":883,"x_min":0,"x_max":0,"o":"m 675 497 l 406 497 b 363 669 388 551 363 603 b 467 786 363 739 404 786 b 574 672 529 786 565 749 l 807 672 b 467 992 796 868 671 992 b 131 672 260 992 131 858 b 169 497 131 597 151 544 l 94 497 l 94 364 l 197 364 b 108 194 192 294 157 236 l 108 0 l 807 0 l 807 204 l 343 204 b 424 364 390 242 418 299 l 675 364 z "},"¥":{"ha":989,"x_min":0,"x_max":0,"o":"m 610 0 l 610 203 l 825 203 l 825 322 l 610 322 l 610 392 l 613 397 l 825 397 l 825 517 l 672 517 l 900 975 l 661 975 l 494 622 l 328 975 l 89 975 l 317 517 l 164 517 l 164 397 l 376 397 l 379 392 l 379 322 l 164 322 l 164 203 l 379 203 l 379 0 z "},"§":{"ha":811,"x_min":0,"x_max":0,"o":"m 383 992 b 103 774 200 992 103 883 b 188 611 103 699 133 640 b 103 461 135 583 103 533 b 382 253 103 344 183 272 b 486 200 464 244 486 228 b 424 154 486 176 467 154 b 346 219 375 154 351 183 l 122 219 b 428 -18 135 86 232 -18 b 708 200 611 -18 708 90 b 624 363 708 275 678 333 b 708 513 676 390 708 440 b 429 721 708 629 628 701 b 325 774 347 729 325 746 b 388 819 325 797 344 819 b 465 754 436 819 460 790 l 689 754 b 383 992 676 888 579 992 z m 486 485 b 426 425 486 454 461 433 b 325 489 346 433 325 451 b 383 549 325 518 349 540 b 486 485 464 540 486 522 z "},"¨":{"ha":542,"x_min":0,"x_max":0,"o":"m 147 796 b 240 889 197 796 240 839 b 147 982 240 939 197 982 b 54 889 97 982 54 939 b 147 796 54 839 97 796 z m 394 796 b 488 889 444 796 488 839 b 394 982 488 939 444 982 b 301 889 344 982 301 939 b 394 796 301 839 344 796 z "},"©":{"ha":1089,"x_min":0,"x_max":0,"o":"m 942 488 b 544 96 942 278 776 96 b 147 488 313 96 147 278 b 544 879 147 697 313 879 b 942 488 776 879 942 697 z m 83 488 b 544 36 83 250 276 36 b 1006 488 813 36 1006 250 b 544 939 1006 725 813 939 b 83 488 276 939 83 725 z m 307 488 b 550 250 307 353 411 250 b 782 443 668 250 769 326 l 626 443 b 549 389 618 414 586 389 b 457 488 494 389 457 433 b 549 586 457 542 494 586 b 626 532 586 586 618 561 l 782 532 b 550 725 769 649 668 725 b 307 488 411 725 307 622 z "},"ª":{"ha":785,"x_min":0,"x_max":0,"o":"m 483 704 b 376 592 483 640 439 592 b 267 704 313 592 267 640 b 376 817 267 768 313 817 b 483 704 439 817 483 768 z m 682 975 l 483 975 l 483 939 b 346 992 460 971 401 992 b 69 704 189 992 69 879 b 346 417 69 529 189 417 b 483 469 401 417 460 438 l 483 433 l 682 433 z "},"«":{"ha":794,"x_min":0,"x_max":0,"o":"m 354 443 l 511 208 l 731 208 l 572 443 l 731 678 l 511 678 z m 64 443 l 221 208 l 440 208 l 282 443 l 440 678 l 221 678 z "},"¬":{"ha":825,"x_min":0,"x_max":0,"o":"m 86 579 l 86 393 l 525 393 l 525 156 l 739 156 l 739 579 z "},"®":{"ha":1089,"x_min":0,"x_max":0,"o":"m 83 488 b 544 36 83 250 276 36 b 1006 488 813 36 1006 250 b 544 939 1006 725 813 939 b 83 488 276 939 83 725 z m 942 488 b 544 96 942 278 776 96 b 147 488 313 96 147 278 b 544 879 147 697 313 879 b 942 488 776 879 942 697 z m 771 554 b 582 719 771 649 693 719 l 357 719 l 357 256 l 507 256 l 507 389 l 549 389 l 622 256 l 782 256 l 686 414 b 771 554 739 442 771 493 z m 507 506 l 507 603 l 568 603 b 621 554 597 603 621 586 b 568 506 621 522 597 506 z "},"¯":{"ha":542,"x_min":0,"x_max":0,"o":"m 479 964 l 63 964 l 63 814 l 479 814 z "},"°":{"ha":472,"x_min":0,"x_max":0,"o":"m 236 778 b 192 822 213 778 192 797 b 236 867 192 847 213 867 b 281 822 260 867 281 847 b 236 778 281 797 260 778 z m 236 985 b 64 822 136 985 64 913 b 236 660 64 732 136 660 b 408 822 336 660 408 732 b 236 985 408 913 336 985 z "},"±":{"ha":825,"x_min":0,"x_max":0,"o":"m 86 200 l 86 14 l 739 14 l 739 200 z m 86 676 l 86 490 l 306 490 l 306 267 l 519 267 l 519 490 l 739 490 l 739 676 l 519 676 l 519 900 l 306 900 l 306 676 z "},"²":{"ha":536,"x_min":0,"x_max":0,"o":"m 240 981 b 274 1033 240 1018 253 1033 b 303 1001 293 1033 303 1019 b 240 907 303 969 286 951 l 86 760 l 86 624 l 475 624 l 475 765 l 303 765 l 388 847 b 471 1004 444 903 471 947 b 274 1175 471 1099 406 1175 b 71 981 142 1175 76 1101 z "},"³":{"ha":536,"x_min":0,"x_max":0,"o":"m 210 835 l 261 835 b 301 794 288 835 301 824 b 267 757 301 772 289 757 b 229 792 242 757 231 769 l 56 792 b 268 614 60 678 144 614 b 474 783 396 614 474 683 b 401 896 474 840 444 881 b 465 1006 439 915 465 956 b 268 1175 465 1103 396 1175 b 64 993 139 1175 65 1107 l 229 993 b 265 1033 229 1021 243 1033 b 300 994 288 1033 300 1019 b 260 956 300 968 282 956 l 210 956 z "},"´":{"ha":542,"x_min":0,"x_max":0,"o":"m 239 975 l 83 769 l 283 769 l 458 975 z "},"µ":{"ha":847,"x_min":0,"x_max":0,"o":"m 317 15 b 400 -17 331 -3 365 -17 b 531 68 465 -17 513 24 l 531 0 l 751 0 l 751 686 l 531 686 l 531 328 b 411 176 531 224 476 176 b 317 272 358 176 319 210 l 317 686 l 96 686 l 96 -317 l 317 -317 z "},"¶":{"ha":922,"x_min":0,"x_max":0,"o":"m 378 975 b 97 694 222 975 97 850 b 378 414 97 539 222 414 l 433 414 l 433 -317 l 586 -317 l 586 839 l 653 839 l 653 -317 l 806 -317 l 806 839 l 894 839 l 894 975 z "},"·":{"ha":442,"x_min":0,"x_max":0,"o":"m 354 488 b 221 619 354 560 293 619 b 88 488 149 619 88 560 b 221 356 88 415 149 356 b 354 488 293 356 354 415 z "},"¸":{"ha":542,"x_min":0,"x_max":0,"o":"m 182 11 l 149 -97 l 183 -121 b 235 -149 219 -121 235 -132 b 190 -178 235 -167 221 -178 b 124 -171 171 -178 144 -175 l 121 -297 b 228 -308 154 -304 194 -308 b 421 -165 349 -308 421 -251 b 318 -54 421 -110 378 -71 l 339 11 z "},"¹":{"ha":536,"x_min":0,"x_max":0,"o":"m 385 1165 l 236 1165 l 94 1128 l 94 992 l 208 1018 l 208 624 l 385 624 z "},"º":{"ha":792,"x_min":0,"x_max":0,"o":"m 396 417 b 707 704 561 417 707 529 b 396 992 707 879 561 992 b 85 704 231 992 85 879 b 396 417 85 529 231 417 z m 396 817 b 506 704 460 817 506 768 b 396 592 506 640 460 592 b 286 704 332 592 286 640 b 396 817 286 768 332 817 z "},"¼":{"ha":1265,"x_min":0,"x_max":0,"o":"m 1007 975 l 829 975 l 289 0 l 467 0 z m 1165 542 l 971 542 l 774 219 l 774 85 l 997 85 l 997 0 l 1165 0 l 1165 85 l 1218 85 l 1218 226 l 1165 226 z m 918 226 l 997 356 l 997 226 z m 385 975 l 236 975 l 94 938 l 94 801 l 208 828 l 208 433 l 385 433 z "},"½":{"ha":1265,"x_min":0,"x_max":0,"o":"m 969 357 b 1003 410 969 394 982 410 b 1032 378 1022 410 1032 396 b 969 283 1032 346 1015 328 l 815 136 l 815 0 l 1204 0 l 1204 142 l 1032 142 l 1117 224 b 1200 381 1174 279 1200 324 b 1003 551 1200 475 1135 551 b 800 357 871 551 806 478 z m 1007 975 l 829 975 l 289 0 l 467 0 z m 385 975 l 236 975 l 94 938 l 94 801 l 208 828 l 208 433 l 385 433 z "},"¾":{"ha":1265,"x_min":0,"x_max":0,"o":"m 1165 542 l 971 542 l 774 219 l 774 85 l 997 85 l 997 0 l 1165 0 l 1165 85 l 1218 85 l 1218 226 l 1165 226 z m 918 226 l 997 356 l 997 226 z m 1007 975 l 829 975 l 289 0 l 467 0 z m 210 644 l 261 644 b 301 604 288 644 301 633 b 267 567 301 582 289 567 b 229 601 242 567 231 579 l 56 601 b 268 424 60 488 144 424 b 474 593 396 424 474 493 b 401 706 474 650 444 690 b 465 815 439 725 465 765 b 268 985 465 913 396 985 b 64 803 139 985 65 917 l 229 803 b 265 843 229 831 243 843 b 300 804 288 843 300 829 b 260 765 300 778 282 765 l 210 765 z "},"¿":{"ha":832,"x_min":0,"x_max":0,"o":"m 228 244 b 74 -7 117 176 74 110 b 415 -306 74 -174 208 -306 b 758 6 621 -306 750 -181 l 526 6 b 414 -103 522 -58 488 -103 b 306 -4 343 -103 306 -57 b 385 100 306 36 328 68 b 529 344 500 165 529 224 l 529 381 l 299 381 l 299 357 b 228 244 299 306 292 283 z m 281 571 b 414 439 281 499 342 439 b 547 571 486 439 547 499 b 414 703 547 643 486 703 b 281 571 342 703 281 643 z "},"À":{"ha":992,"x_min":0,"x_max":0,"o":""},"Á":{"ha":992,"x_min":0,"x_max":0,"o":"m 368 975 l 11 0 l 260 0 l 325 194 l 665 194 l 732 0 l 981 0 l 624 975 z m 486 668 b 496 707 490 683 494 693 b 506 668 497 693 500 683 l 599 393 l 393 393 z m 533 1240 l 378 1035 l 578 1035 l 753 1240 z "},"Â":{"ha":992,"x_min":0,"x_max":0,"o":""},"Ã":{"ha":992,"x_min":0,"x_max":0,"o":"m 368 975 l 11 0 l 260 0 l 325 194 l 665 194 l 732 0 l 981 0 l 624 975 z m 486 668 b 496 707 490 683 494 693 b 506 668 497 693 500 683 l 599 393 l 393 393 z m 583 1064 b 707 1226 664 1064 706 1119 l 563 1226 b 536 1193 561 1206 553 1193 b 410 1231 507 1193 482 1231 b 286 1068 329 1231 288 1175 l 431 1068 b 457 1101 432 1089 440 1101 b 583 1064 486 1101 511 1064 z "},"Ä":{"ha":992,"x_min":0,"x_max":0,"o":""},"Å":{"ha":992,"x_min":0,"x_max":0,"o":"m 368 975 l 11 0 l 260 0 l 325 194 l 665 194 l 732 0 l 981 0 l 624 975 z m 486 668 b 496 707 490 683 494 693 b 506 668 497 693 500 683 l 599 393 l 393 393 z m 496 1111 b 465 1140 479 1111 465 1124 b 496 1169 465 1157 479 1169 b 526 1140 513 1169 526 1157 b 496 1111 526 1124 513 1111 z m 496 1275 b 350 1140 418 1275 350 1217 b 496 1006 350 1064 418 1006 b 642 1140 574 1006 642 1064 b 496 1275 642 1217 574 1275 z "},"Æ":{"ha":1406,"x_min":0,"x_max":0,"o":"m 496 975 l -28 0 l 226 0 l 333 194 l 638 194 l 638 0 l 1325 0 l 1325 204 l 868 204 l 868 397 l 1290 397 l 1290 596 l 868 596 l 868 771 l 1311 771 l 1311 975 z m 628 724 b 638 763 632 739 636 749 l 638 393 l 444 393 z "},"Ç":{"ha":1136,"x_min":0,"x_max":0,"o":"m 64 488 b 504 -11 64 228 247 22 l 478 -97 l 513 -121 b 564 -149 549 -121 564 -132 b 519 -178 564 -167 550 -178 b 453 -171 500 -178 474 -175 l 450 -297 b 557 -308 483 -304 524 -308 b 750 -165 678 -308 750 -251 b 647 -54 750 -110 707 -71 l 660 -11 b 1072 358 879 15 1039 156 l 829 358 b 582 189 806 261 699 189 b 296 488 415 189 296 326 b 582 786 296 649 415 786 b 829 617 699 786 806 714 l 1072 617 b 582 992 1035 843 840 992 b 64 488 286 992 64 772 z "},"È":{"ha":882,"x_min":0,"x_max":0,"o":""},"É":{"ha":882,"x_min":0,"x_max":0,"o":"m 114 0 l 801 0 l 801 204 l 344 204 l 344 397 l 767 397 l 767 596 l 344 596 l 344 771 l 788 771 l 788 975 l 114 975 z m 482 1240 l 326 1035 l 526 1035 l 701 1240 z "},"Ê":{"ha":882,"x_min":0,"x_max":0,"o":""},"Ë":{"ha":882,"x_min":0,"x_max":0,"o":"m 114 0 l 801 0 l 801 204 l 344 204 l 344 397 l 767 397 l 767 596 l 344 596 l 344 771 l 788 771 l 788 975 l 114 975 z m 331 1050 b 424 1143 381 1050 424 1093 b 331 1236 424 1193 381 1236 b 238 1143 281 1236 238 1193 b 331 1050 238 1093 281 1050 z m 578 1050 b 671 1143 628 1050 671 1093 b 578 1236 671 1193 628 1236 b 485 1143 528 1236 485 1193 b 578 1050 485 1093 528 1050 z "},"Ì":{"ha":458,"x_min":0,"x_max":0,"o":""},"Í":{"ha":458,"x_min":0,"x_max":0,"o":"m 114 0 l 344 0 l 344 975 l 114 975 z m 253 1240 l 97 1035 l 297 1035 l 472 1240 z "},"Î":{"ha":458,"x_min":0,"x_max":0,"o":""},"Ï":{"ha":458,"x_min":0,"x_max":0,"o":"m 114 0 l 344 0 l 344 975 l 114 975 z m 106 1050 b 199 1143 156 1050 199 1093 b 106 1236 199 1193 156 1236 b 13 1143 56 1236 13 1193 b 106 1050 13 1093 56 1050 z m 353 1050 b 446 1143 403 1050 446 1093 b 353 1236 446 1193 403 1236 b 260 1143 303 1236 260 1193 b 353 1050 260 1093 303 1050 z "},"Ð":{"ha":1064,"x_min":0,"x_max":0,"o":"m 479 0 b 1000 488 775 0 1000 193 b 479 975 1000 782 775 975 l 114 975 l 114 571 l 24 571 l 24 404 l 114 404 l 114 0 z m 768 488 b 479 204 768 317 646 204 l 344 204 l 344 404 l 522 404 l 522 571 l 344 571 l 344 771 l 479 771 b 768 488 646 771 768 658 z "},"Ñ":{"ha":1032,"x_min":0,"x_max":0,"o":""},"Ò":{"ha":1164,"x_min":0,"x_max":0,"o":""},"Ó":{"ha":1164,"x_min":0,"x_max":0,"o":"m 582 189 b 296 488 415 189 296 326 b 582 786 296 649 415 786 b 868 488 749 786 868 649 b 582 189 868 326 749 189 z m 582 992 b 64 488 286 992 64 772 b 582 -17 64 203 286 -17 b 1100 488 878 -17 1100 203 b 582 992 1100 772 878 992 z m 606 1240 l 450 1035 l 650 1035 l 825 1240 z "},"Ô":{"ha":1164,"x_min":0,"x_max":0,"o":""},"Õ":{"ha":1164,"x_min":0,"x_max":0,"o":"m 582 189 b 296 488 415 189 296 326 b 582 786 296 649 415 786 b 868 488 749 786 868 649 b 582 189 868 326 749 189 z m 582 992 b 64 488 286 992 64 772 b 582 -17 64 203 286 -17 b 1100 488 878 -17 1100 203 b 582 992 1100 772 878 992 z m 669 1064 b 793 1226 750 1064 792 1119 l 649 1226 b 622 1193 647 1206 639 1193 b 496 1231 593 1193 568 1231 b 372 1068 415 1231 374 1175 l 517 1068 b 543 1101 518 1089 526 1101 b 669 1064 572 1101 597 1064 z "},"Ö":{"ha":1164,"x_min":0,"x_max":0,"o":""},"×":{"ha":825,"x_min":0,"x_max":0,"o":"m 233 813 l 86 665 l 265 486 l 86 307 l 233 160 l 413 339 l 592 160 l 739 307 l 560 486 l 739 665 l 592 813 l 413 633 z "},"Ø":{"ha":1164,"x_min":0,"x_max":0,"o":"m 257 0 l 304 57 b 582 -17 383 10 478 -17 b 1100 488 878 -17 1100 203 b 958 840 1100 626 1047 750 l 1071 975 l 879 975 l 840 928 b 582 992 765 968 678 992 b 64 488 286 992 64 772 b 190 150 64 356 111 239 l 65 0 z m 582 189 b 443 224 531 189 483 201 l 813 665 b 868 488 847 615 868 553 b 582 189 868 326 749 189 z m 296 488 b 582 786 296 649 415 786 b 700 760 625 786 664 776 l 339 328 b 296 488 311 374 296 429 z "},"Ù":{"ha":1025,"x_min":0,"x_max":0,"o":""},"Ú":{"ha":1025,"x_min":0,"x_max":0,"o":"m 513 -17 b 917 383 763 -17 917 129 l 917 975 l 686 975 l 686 393 b 513 188 686 261 629 188 b 339 393 396 188 339 261 l 339 975 l 108 975 l 108 383 b 513 -17 108 129 263 -17 z m 536 1240 l 381 1035 l 581 1035 l 756 1240 z "},"Û":{"ha":1025,"x_min":0,"x_max":0,"o":""},"Ü":{"ha":1025,"x_min":0,"x_max":0,"o":"m 513 -17 b 917 383 763 -17 917 129 l 917 975 l 686 975 l 686 393 b 513 188 686 261 629 188 b 339 393 396 188 339 261 l 339 975 l 108 975 l 108 383 b 513 -17 108 129 263 -17 z m 389 1050 b 482 1143 439 1050 482 1093 b 389 1236 482 1193 439 1236 b 296 1143 339 1236 296 1193 b 389 1050 296 1093 339 1050 z m 636 1050 b 729 1143 686 1050 729 1093 b 636 1236 729 1193 686 1236 b 543 1143 586 1236 543 1193 b 636 1050 543 1093 586 1050 z "},"Ý":{"ha":978,"x_min":0,"x_max":0,"o":""},"Þ":{"ha":906,"x_min":0,"x_max":0,"o":"m 344 801 l 344 975 l 114 975 l 114 0 l 344 0 l 344 174 l 476 174 b 856 488 708 174 856 285 b 476 801 856 690 708 801 z m 624 488 b 479 364 624 407 574 364 l 344 364 l 344 611 l 479 611 b 624 488 574 611 624 568 z "},"ß":{"ha":888,"x_min":0,"x_max":0,"o":"m 450 800 b 524 739 496 800 524 776 b 400 497 524 661 400 597 b 619 239 400 358 619 303 b 550 192 619 211 597 192 b 394 213 500 192 442 200 l 394 21 b 572 0 440 7 526 0 b 850 213 754 0 850 86 b 631 501 850 389 631 444 b 754 753 631 565 754 622 b 450 992 754 881 638 992 b 110 654 228 992 110 849 l 110 0 l 340 0 l 340 660 b 450 800 340 749 381 800 z "},"à":{"ha":917,"x_min":0,"x_max":0,"o":""},"á":{"ha":917,"x_min":0,"x_max":0,"o":"m 56 343 b 408 -17 56 124 219 -17 b 600 58 485 -17 567 14 l 600 0 l 821 0 l 821 686 l 600 686 l 600 628 b 408 703 567 672 485 703 b 56 343 219 703 56 563 z m 278 343 b 439 510 278 439 346 510 b 600 343 532 510 600 439 b 439 176 600 247 532 176 b 278 343 346 176 278 247 z m 478 975 l 322 769 l 522 769 l 697 975 z "},"â":{"ha":917,"x_min":0,"x_max":0,"o":""},"ã":{"ha":917,"x_min":0,"x_max":0,"o":"m 56 343 b 408 -17 56 124 219 -17 b 600 58 485 -17 567 14 l 600 0 l 821 0 l 821 686 l 600 686 l 600 628 b 408 703 567 672 485 703 b 56 343 219 703 56 563 z m 278 343 b 439 510 278 439 346 510 b 600 343 532 510 600 439 b 439 176 600 247 532 176 b 278 343 346 176 278 247 z m 553 799 b 676 961 633 799 675 854 l 532 961 b 506 928 531 940 522 928 b 379 965 476 928 451 965 b 256 803 299 965 257 910 l 400 803 b 426 836 401 824 410 836 b 553 799 456 836 481 799 z "},"ä":{"ha":917,"x_min":0,"x_max":0,"o":""},"æ":{"ha":1303,"x_min":0,"x_max":0,"o":"m 1247 343 b 874 703 1247 540 1094 703 b 649 613 778 703 693 668 b 411 703 606 671 515 703 b 103 460 199 703 110 608 l 328 460 b 414 528 331 501 353 528 b 500 465 476 528 500 500 b 435 413 500 431 485 418 l 322 401 b 89 190 171 386 89 319 b 356 -17 89 60 186 -17 b 622 89 468 -17 576 26 b 875 -17 669 24 769 -17 b 1239 235 1060 -17 1210 89 l 1007 235 b 875 165 986 194 943 165 b 724 290 793 165 736 213 l 1244 290 b 1247 343 1246 304 1247 325 z m 874 521 b 1017 425 949 521 1000 481 l 731 425 b 874 521 750 486 801 521 z m 443 271 b 500 296 469 274 492 282 l 500 251 b 383 158 500 194 453 158 b 313 211 338 158 313 182 b 375 264 313 243 333 260 z "},"ç":{"ha":858,"x_min":0,"x_max":0,"o":"m 56 343 b 360 -10 56 167 179 21 l 333 -97 l 368 -121 b 419 -149 404 -121 419 -132 b 375 -178 419 -167 406 -178 b 308 -171 356 -178 329 -175 l 306 -297 b 413 -308 339 -304 379 -308 b 606 -165 533 -308 606 -251 b 503 -54 606 -110 563 -71 l 517 -8 b 803 275 674 21 785 138 l 571 275 b 436 176 556 219 506 176 b 278 343 346 176 278 247 b 436 510 278 439 346 510 b 571 411 506 510 556 467 l 803 411 b 436 703 782 571 635 703 b 56 343 215 703 56 543 z "},"è":{"ha":858,"x_min":0,"x_max":0,"o":""},"é":{"ha":858,"x_min":0,"x_max":0,"o":"m 803 343 b 429 703 803 540 650 703 b 56 343 208 703 56 540 b 431 -17 56 139 215 -17 b 794 235 615 -17 765 89 l 563 235 b 431 165 542 194 499 165 b 279 290 349 165 292 213 l 800 290 b 803 343 801 304 803 325 z m 429 521 b 572 425 504 521 556 481 l 286 425 b 429 521 306 486 357 521 z m 453 975 l 297 769 l 497 769 l 672 975 z "},"ê":{"ha":858,"x_min":0,"x_max":0,"o":""},"ë":{"ha":858,"x_min":0,"x_max":0,"o":"m 803 343 b 429 703 803 540 650 703 b 56 343 208 703 56 540 b 431 -17 56 139 215 -17 b 794 235 615 -17 765 89 l 563 235 b 431 165 542 194 499 165 b 279 290 349 165 292 213 l 800 290 b 803 343 801 304 803 325 z m 429 521 b 572 425 504 521 556 481 l 286 425 b 429 521 306 486 357 521 z m 300 786 b 393 879 350 786 393 829 b 300 972 393 929 350 972 b 207 879 250 972 207 929 b 300 786 207 829 250 786 z m 547 786 b 640 879 597 786 640 829 b 547 972 640 929 597 972 b 454 879 497 972 454 929 b 547 786 454 829 497 786 z "},"ì":{"ha":413,"x_min":0,"x_max":0,"o":""},"í":{"ha":413,"x_min":0,"x_max":0,"o":"m 317 0 l 96 0 l 96 686 l 317 686 z m 235 975 l 79 769 l 279 769 l 454 975 z "},"î":{"ha":413,"x_min":0,"x_max":0,"o":""},"ï":{"ha":413,"x_min":0,"x_max":0,"o":"m 317 0 l 96 0 l 96 686 l 317 686 z m 82 786 b 175 879 132 786 175 829 b 82 972 175 929 132 972 b -11 879 32 972 -11 929 b 82 786 -11 829 32 786 z m 329 786 b 422 879 379 786 422 829 b 329 972 422 929 379 972 b 236 879 279 972 236 929 b 329 786 236 829 279 786 z "},"ð":{"ha":878,"x_min":0,"x_max":0,"o":"m 228 843 b 353 826 272 843 314 838 l 313 786 l 386 721 l 450 785 b 544 668 496 756 528 717 b 408 703 517 690 463 703 b 56 343 219 703 56 563 b 439 -17 56 143 215 -17 b 821 357 678 -17 821 149 b 589 924 821 635 738 819 l 632 967 l 558 1032 l 500 974 b 229 1025 422 1007 331 1024 z m 600 343 b 439 176 600 247 531 176 b 278 343 347 176 278 247 b 439 510 278 439 347 510 b 600 343 531 510 600 439 z "},"ñ":{"ha":842,"x_min":0,"x_max":0,"o":""},"ò":{"ha":878,"x_min":0,"x_max":0,"o":""},"ó":{"ha":878,"x_min":0,"x_max":0,"o":"m 439 703 b 56 343 215 703 56 543 b 439 -17 56 143 215 -17 b 822 343 663 -17 822 143 b 439 703 822 543 663 703 z m 439 176 b 278 343 347 176 278 247 b 439 510 278 439 347 510 b 600 343 531 510 600 439 b 439 176 600 247 531 176 z m 463 975 l 307 769 l 507 769 l 682 975 z "},"ô":{"ha":878,"x_min":0,"x_max":0,"o":""},"õ":{"ha":878,"x_min":0,"x_max":0,"o":"m 439 703 b 56 343 215 703 56 543 b 439 -17 56 143 215 -17 b 822 343 663 -17 822 143 b 439 703 822 543 663 703 z m 439 176 b 278 343 347 176 278 247 b 439 510 278 439 347 510 b 600 343 531 510 600 439 b 439 176 600 247 531 176 z m 526 799 b 650 961 607 799 649 854 l 506 961 b 479 928 504 940 496 928 b 353 965 450 928 425 965 b 229 803 272 965 231 910 l 374 803 b 400 836 375 824 383 836 b 526 799 429 836 454 799 z "},"ö":{"ha":878,"x_min":0,"x_max":0,"o":""},"÷":{"ha":825,"x_min":0,"x_max":0,"o":"m 86 579 l 86 393 l 739 393 l 739 579 z m 289 750 b 413 628 289 683 346 628 b 536 750 479 628 536 683 b 413 872 536 817 479 872 b 289 750 346 872 289 817 z m 289 222 b 413 344 289 289 346 344 b 536 222 479 344 536 289 b 413 100 536 156 479 100 b 289 222 346 100 289 156 z "},"ø":{"ha":878,"x_min":0,"x_max":0,"o":"m 644 686 l 624 661 b 439 703 569 688 507 703 b 56 343 215 703 56 543 b 147 104 56 251 89 167 l 58 0 l 228 0 l 250 26 b 439 -17 306 -1 368 -17 b 822 343 663 -17 822 143 b 728 585 822 436 788 521 l 814 686 z m 439 176 b 386 185 419 176 403 179 l 585 417 b 600 343 594 394 600 369 b 439 176 600 247 531 176 z m 278 343 b 439 510 278 439 347 510 b 488 503 456 510 472 507 l 292 272 b 278 343 282 293 278 317 z "},"ù":{"ha":842,"x_min":0,"x_max":0,"o":""},"ú":{"ha":842,"x_min":0,"x_max":0,"o":"m 90 686 l 311 686 l 311 282 b 406 176 311 214 350 176 b 525 328 471 176 525 224 l 525 686 l 746 686 l 746 0 l 525 0 l 525 68 b 344 -17 496 21 426 -17 b 90 243 192 -17 90 86 z m 444 975 l 289 769 l 489 769 l 664 975 z "},"û":{"ha":842,"x_min":0,"x_max":0,"o":""},"ü":{"ha":842,"x_min":0,"x_max":0,"o":"m 90 686 l 311 686 l 311 282 b 406 176 311 214 350 176 b 525 328 471 176 525 224 l 525 686 l 746 686 l 746 0 l 525 0 l 525 68 b 344 -17 496 21 426 -17 b 90 243 192 -17 90 86 z m 294 786 b 388 879 344 786 388 829 b 294 972 388 929 344 972 b 201 879 244 972 201 929 b 294 786 201 829 244 786 z m 542 786 b 635 879 592 786 635 829 b 542 972 635 929 592 972 b 449 879 492 972 449 929 b 542 786 449 829 492 786 z "},"ý":{"ha":817,"x_min":0,"x_max":0,"o":""},"þ":{"ha":917,"x_min":0,"x_max":0,"o":"m 861 343 b 508 703 861 563 697 703 b 317 628 432 703 351 672 l 317 1003 l 96 1003 l 96 -317 l 317 -317 l 317 58 b 508 -17 351 14 432 -17 b 861 343 697 -17 861 124 z m 478 176 b 317 343 386 176 317 247 b 478 510 317 439 386 510 b 639 343 569 510 639 439 b 478 176 639 247 569 176 z "},"ÿ":{"ha":817,"x_min":0,"x_max":0,"o":"m 475 -119 b 193 -317 424 -257 365 -317 b 115 -311 169 -317 139 -314 l 115 -129 b 167 -132 129 -131 151 -132 b 276 -56 225 -132 253 -117 l 297 0 l 38 686 l 265 686 l 400 297 b 408 258 404 283 407 272 b 417 297 410 272 413 283 l 551 686 l 779 686 z m 285 786 b 378 879 335 786 378 829 b 285 972 378 929 335 972 b 192 879 235 972 192 929 b 285 786 192 829 235 786 z m 532 786 b 625 879 582 786 625 829 b 532 972 625 929 582 972 b 439 879 482 972 439 929 b 532 786 439 829 482 786 z "},"Ā":{"ha":992,"x_min":0,"x_max":0,"o":"m 368 975 l 11 0 l 260 0 l 325 194 l 665 194 l 732 0 l 981 0 l 624 975 z m 486 668 b 496 707 490 683 494 693 b 506 668 497 693 500 683 l 599 393 l 393 393 z m 704 1218 l 288 1218 l 288 1068 l 704 1068 z "},"ā":{"ha":917,"x_min":0,"x_max":0,"o":"m 56 343 b 408 -17 56 124 219 -17 b 600 58 485 -17 567 14 l 600 0 l 821 0 l 821 686 l 600 686 l 600 628 b 408 703 567 672 485 703 b 56 343 219 703 56 563 z m 278 343 b 439 510 278 439 346 510 b 600 343 532 510 600 439 b 439 176 600 247 532 176 b 278 343 346 176 278 247 z m 674 953 l 257 953 l 257 803 l 674 803 z "},"Ă":{"ha":992,"x_min":0,"x_max":0,"o":""},"ă":{"ha":917,"x_min":0,"x_max":0,"o":"m 56 343 b 408 -17 56 124 219 -17 b 600 58 485 -17 567 14 l 600 0 l 821 0 l 821 686 l 600 686 l 600 628 b 408 703 567 672 485 703 b 56 343 219 703 56 563 z m 278 343 b 439 510 278 439 346 510 b 600 343 532 510 600 439 b 439 176 600 247 532 176 b 278 343 346 176 278 247 z m 465 782 b 678 974 593 782 678 860 l 517 974 b 465 918 517 940 496 918 b 414 974 435 918 414 940 l 253 974 b 465 782 253 860 338 782 z "},"Ą":{"ha":992,"x_min":0,"x_max":0,"o":"m 621 -160 b 815 -308 621 -253 696 -308 b 903 -301 847 -308 883 -306 l 903 -154 b 863 -158 892 -157 876 -158 b 807 -118 829 -158 807 -146 b 896 0 807 -90 835 -46 l 981 0 l 624 975 l 368 975 l 11 0 l 260 0 l 325 194 l 665 194 l 732 0 b 621 -160 664 -40 621 -104 z m 486 668 b 496 707 490 683 494 693 b 506 668 497 693 500 683 l 599 393 l 393 393 z "},"ą":{"ha":917,"x_min":0,"x_max":0,"o":"m 490 -160 b 685 -308 490 -253 565 -308 b 772 -301 717 -308 753 -306 l 772 -154 b 732 -158 761 -157 746 -158 b 676 -118 699 -158 676 -146 b 765 0 676 -90 704 -46 l 821 0 l 821 686 l 600 686 l 600 628 b 408 703 567 672 485 703 b 56 343 219 703 56 563 b 408 -17 56 124 219 -17 b 600 58 485 -17 567 14 l 600 0 b 490 -160 533 -40 490 -104 z m 278 343 b 439 510 278 439 346 510 b 600 343 532 510 600 439 b 439 176 600 247 532 176 b 278 343 346 176 278 247 z "},"Ć":{"ha":1136,"x_min":0,"x_max":0,"o":""},"ć":{"ha":858,"x_min":0,"x_max":0,"o":"m 56 343 b 436 703 56 543 215 703 b 803 411 635 703 782 571 l 571 411 b 436 510 556 467 506 510 b 278 343 346 510 278 439 b 436 176 278 247 346 176 b 571 275 506 176 556 219 l 803 275 b 436 -17 782 115 635 -17 b 56 343 215 -17 56 143 z m 444 975 l 289 769 l 489 769 l 664 975 z "},"Ĉ":{"ha":1136,"x_min":0,"x_max":0,"o":""},"ĉ":{"ha":858,"x_min":0,"x_max":0,"o":"m 56 343 b 436 -17 56 143 215 -17 b 803 275 635 -17 782 115 l 571 275 b 436 176 556 219 506 176 b 278 343 346 176 278 247 b 436 510 278 439 346 510 b 571 411 506 510 556 467 l 803 411 b 436 703 782 571 635 703 b 56 343 215 703 56 543 z m 483 769 l 663 769 l 519 975 l 331 975 l 188 769 l 367 769 l 425 840 z "},"Ċ":{"ha":1136,"x_min":0,"x_max":0,"o":""},"ċ":{"ha":858,"x_min":0,"x_max":0,"o":"m 56 343 b 436 703 56 543 215 703 b 803 411 635 703 782 571 l 571 411 b 436 510 556 467 506 510 b 278 343 346 510 278 439 b 436 176 278 247 346 176 b 571 275 506 176 556 219 l 803 275 b 436 -17 782 115 635 -17 b 56 343 215 -17 56 143 z m 424 775 b 528 879 479 775 528 824 b 424 983 528 935 479 983 b 319 879 368 983 319 935 b 424 775 319 824 368 775 z "},"Č":{"ha":1136,"x_min":0,"x_max":0,"o":""},"č":{"ha":858,"x_min":0,"x_max":0,"o":"m 56 343 b 436 703 56 543 215 703 b 803 411 635 703 782 571 l 571 411 b 436 510 556 467 506 510 b 278 343 346 510 278 439 b 436 176 278 247 346 176 b 571 275 506 176 556 219 l 803 275 b 436 -17 782 115 635 -17 b 56 343 215 -17 56 143 z m 424 904 l 365 975 l 186 975 l 329 769 l 518 769 l 661 975 l 482 975 z "},"Ď":{"ha":1064,"x_min":0,"x_max":0,"o":""},"ď":{"ha":1085,"x_min":0,"x_max":0,"o":"m 56 343 b 408 -17 56 124 219 -17 b 600 58 485 -17 565 14 l 600 0 l 821 0 l 821 1003 l 600 1003 l 600 628 b 408 703 565 672 485 703 b 56 343 219 703 56 563 z m 439 176 b 278 343 347 176 278 247 b 439 510 278 439 347 510 b 600 343 531 510 600 439 b 439 176 600 247 531 176 z m 882 901 b 944 804 882 857 907 819 l 903 678 l 1019 678 l 1089 851 b 1099 901 1094 865 1099 889 b 990 1010 1099 958 1056 1010 b 882 901 928 1010 882 958 z "},"Đ":{"ha":1064,"x_min":0,"x_max":0,"o":"m 479 0 b 1000 488 775 0 1000 193 b 479 975 1000 782 775 975 l 114 975 l 114 571 l 24 571 l 24 404 l 114 404 l 114 0 z m 768 488 b 479 204 768 317 646 204 l 344 204 l 344 404 l 522 404 l 522 571 l 344 571 l 344 771 l 479 771 b 768 488 646 771 768 658 z "},"đ":{"ha":917,"x_min":0,"x_max":0,"o":"m 433 917 l 433 767 l 600 767 l 600 628 b 408 703 565 672 485 703 b 56 343 219 703 56 563 b 408 -17 56 124 219 -17 b 600 58 485 -17 565 14 l 600 0 l 821 0 l 821 767 l 908 767 l 908 917 l 821 917 l 821 1003 l 600 1003 l 600 917 z m 439 176 b 278 343 347 176 278 247 b 439 510 278 439 347 510 b 600 343 531 510 600 439 b 439 176 600 247 531 176 z "},"Ē":{"ha":882,"x_min":0,"x_max":0,"o":"m 114 0 l 801 0 l 801 204 l 344 204 l 344 397 l 767 397 l 767 596 l 344 596 l 344 771 l 788 771 l 788 975 l 114 975 z m 663 1218 l 246 1218 l 246 1068 l 663 1068 z "},"ē":{"ha":858,"x_min":0,"x_max":0,"o":"m 803 343 b 429 703 803 540 650 703 b 56 343 208 703 56 540 b 431 -17 56 139 215 -17 b 794 235 615 -17 765 89 l 563 235 b 431 165 542 194 499 165 b 279 290 349 165 292 213 l 800 290 b 803 343 801 304 803 325 z m 429 521 b 572 425 504 521 556 481 l 286 425 b 429 521 306 486 357 521 z m 632 953 l 215 953 l 215 803 l 632 803 z "},"Ĕ":{"ha":882,"x_min":0,"x_max":0,"o":""},"ĕ":{"ha":858,"x_min":0,"x_max":0,"o":"m 803 343 b 429 703 803 540 650 703 b 56 343 208 703 56 540 b 431 -17 56 139 215 -17 b 794 235 615 -17 765 89 l 563 235 b 431 165 542 194 499 165 b 279 290 349 165 292 213 l 800 290 b 803 343 801 304 803 325 z m 429 521 b 572 425 504 521 556 481 l 286 425 b 429 521 306 486 357 521 z m 424 782 b 636 974 551 782 636 860 l 475 974 b 424 918 475 940 454 918 b 372 974 393 918 372 940 l 211 974 b 424 782 211 860 296 782 z "},"Ė":{"ha":882,"x_min":0,"x_max":0,"o":""},"ė":{"ha":858,"x_min":0,"x_max":0,"o":"m 803 343 b 429 703 803 540 650 703 b 56 343 208 703 56 540 b 431 -17 56 139 215 -17 b 794 235 615 -17 765 89 l 563 235 b 431 165 542 194 499 165 b 279 290 349 165 292 213 l 800 290 b 803 343 801 304 803 325 z m 429 521 b 572 425 504 521 556 481 l 286 425 b 429 521 306 486 357 521 z m 424 775 b 528 879 479 775 528 824 b 424 983 528 935 479 983 b 319 879 368 983 319 935 b 424 775 319 824 368 775 z "},"Ę":{"ha":882,"x_min":0,"x_max":0,"o":"m 114 0 l 567 0 b 457 -160 500 -40 457 -104 b 651 -308 457 -253 532 -308 b 739 -301 683 -308 719 -306 l 739 -154 b 699 -158 728 -157 713 -158 b 643 -118 665 -158 643 -146 b 732 0 643 -90 671 -46 l 801 0 l 801 204 l 344 204 l 344 397 l 767 397 l 767 596 l 344 596 l 344 771 l 788 771 l 788 975 l 114 975 z "},"ę":{"ha":858,"x_min":0,"x_max":0,"o":"m 294 -160 b 489 -308 294 -253 369 -308 b 576 -301 521 -308 557 -306 l 576 -154 b 536 -158 565 -157 550 -158 b 481 -118 503 -158 481 -146 b 582 8 481 -87 511 -40 b 794 235 693 49 774 131 l 563 235 b 431 165 542 194 499 165 b 279 290 349 165 292 213 l 800 290 b 803 343 801 304 803 325 b 429 703 803 540 650 703 b 56 343 208 703 56 540 b 383 -14 56 154 192 7 b 294 -160 328 -54 294 -110 z m 429 521 b 572 425 504 521 556 481 l 286 425 b 429 521 306 486 357 521 z "},"Ě":{"ha":882,"x_min":0,"x_max":0,"o":""},"ě":{"ha":858,"x_min":0,"x_max":0,"o":"m 803 343 b 429 703 803 540 650 703 b 56 343 208 703 56 540 b 431 -17 56 139 215 -17 b 794 235 615 -17 765 89 l 563 235 b 431 165 542 194 499 165 b 279 290 349 165 292 213 l 800 290 b 803 343 801 304 803 325 z m 429 521 b 572 425 504 521 556 481 l 286 425 b 429 521 306 486 357 521 z m 424 904 l 365 975 l 186 975 l 329 769 l 518 769 l 661 975 l 482 975 z "},"Ĝ":{"ha":1136,"x_min":0,"x_max":0,"o":""},"ĝ":{"ha":917,"x_min":0,"x_max":0,"o":"m 821 686 l 600 686 l 600 628 b 408 703 565 672 485 703 b 56 343 219 703 56 563 b 408 -17 56 124 219 -17 b 600 58 485 -17 565 14 l 600 21 b 458 -143 600 -82 546 -143 b 322 -71 390 -143 342 -112 l 93 -71 b 458 -317 125 -214 263 -317 b 821 29 688 -317 821 -175 z m 439 176 b 278 343 347 176 278 247 b 439 510 278 439 347 510 b 600 343 531 510 600 439 b 439 176 600 247 531 176 z m 531 769 l 710 769 l 567 975 l 378 975 l 235 769 l 414 769 l 472 840 z "},"Ğ":{"ha":1136,"x_min":0,"x_max":0,"o":""},"ğ":{"ha":917,"x_min":0,"x_max":0,"o":"m 821 686 l 600 686 l 600 628 b 408 703 565 672 485 703 b 56 343 219 703 56 563 b 408 -17 56 124 219 -17 b 600 58 485 -17 565 14 l 600 21 b 458 -143 600 -82 546 -143 b 322 -71 390 -143 342 -112 l 93 -71 b 458 -317 125 -214 263 -317 b 821 29 688 -317 821 -175 z m 439 176 b 278 343 347 176 278 247 b 439 510 278 439 347 510 b 600 343 531 510 600 439 b 439 176 600 247 531 176 z m 472 782 b 685 974 600 782 685 860 l 524 974 b 472 918 524 940 503 918 b 421 974 442 918 421 940 l 260 974 b 472 782 260 860 344 782 z "},"Ġ":{"ha":1136,"x_min":0,"x_max":0,"o":""},"ġ":{"ha":917,"x_min":0,"x_max":0,"o":"m 821 686 l 600 686 l 600 628 b 408 703 565 672 485 703 b 56 343 219 703 56 563 b 408 -17 56 124 219 -17 b 600 58 485 -17 565 14 l 600 21 b 458 -143 600 -82 546 -143 b 322 -71 390 -143 342 -112 l 93 -71 b 458 -317 125 -214 263 -317 b 821 29 688 -317 821 -175 z m 439 176 b 278 343 347 176 278 247 b 439 510 278 439 347 510 b 600 343 531 510 600 439 b 439 176 600 247 531 176 z m 472 775 b 576 879 528 775 576 824 b 472 983 576 935 528 983 b 368 879 417 983 368 935 b 472 775 368 824 417 775 z "},"Ģ":{"ha":1136,"x_min":0,"x_max":0,"o":"m 1065 643 b 582 992 1025 853 824 992 b 64 488 286 992 64 772 b 588 -17 64 203 286 -17 b 1072 415 889 -17 1072 178 l 1072 544 l 581 544 l 581 367 l 829 367 b 590 189 824 269 729 189 b 296 488 421 189 296 319 b 582 786 296 649 415 786 b 819 643 697 786 792 719 z m 485 -157 b 547 -254 485 -201 510 -239 l 506 -381 l 622 -381 l 692 -207 b 701 -157 697 -193 701 -169 b 593 -49 701 -100 658 -49 b 485 -157 531 -49 485 -100 z "},"ģ":{"ha":917,"x_min":0,"x_max":0,"o":"m 821 686 l 600 686 l 600 628 b 408 703 565 672 485 703 b 56 343 219 703 56 563 b 408 -17 56 124 219 -17 b 600 58 485 -17 565 14 l 600 21 b 458 -143 600 -82 546 -143 b 322 -71 390 -143 342 -112 l 93 -71 b 458 -317 125 -214 263 -317 b 821 29 688 -317 821 -175 z m 439 176 b 278 343 347 176 278 247 b 439 510 278 439 347 510 b 600 343 531 510 600 439 b 439 176 600 247 531 176 z m 581 846 b 518 943 581 890 556 928 l 560 1069 l 443 1069 l 374 896 b 364 846 368 882 364 858 b 472 738 364 789 407 738 b 581 846 535 738 581 789 z "},"Ĥ":{"ha":1022,"x_min":0,"x_max":0,"o":""},"ĥ":{"ha":842,"x_min":0,"x_max":0,"o":"m 751 443 b 497 703 751 600 650 703 b 317 618 415 703 346 665 l 317 1003 l 96 1003 l 96 0 l 317 0 l 317 358 b 436 510 317 463 371 510 b 531 404 492 510 531 472 l 531 0 l 751 0 z m 265 1035 l 444 1035 l 301 1240 l 113 1240 l -31 1035 l 149 1035 l 207 1106 z "},"Ħ":{"ha":1022,"x_min":0,"x_max":0,"o":"m 24 860 l 24 693 l 114 693 l 114 0 l 344 0 l 344 393 l 678 393 l 678 0 l 908 0 l 908 693 l 999 693 l 999 860 l 908 860 l 908 975 l 678 975 l 678 860 l 344 860 l 344 975 l 114 975 l 114 860 z m 678 597 l 344 597 l 344 693 l 678 693 z "},"ħ":{"ha":842,"x_min":0,"x_max":0,"o":"m 317 917 l 317 1003 l 96 1003 l 96 917 l 8 917 l 8 767 l 96 767 l 96 0 l 317 0 l 317 358 b 436 510 317 463 371 510 b 531 404 492 510 531 472 l 531 0 l 751 0 l 751 443 b 497 703 751 600 650 703 b 317 618 415 703 346 665 l 317 767 l 483 767 l 483 917 z "},"Ĩ":{"ha":458,"x_min":0,"x_max":0,"o":""},"ĩ":{"ha":413,"x_min":0,"x_max":0,"o":"m 317 0 l 96 0 l 96 686 l 317 686 z m 293 799 b 417 961 374 799 415 854 l 272 961 b 246 928 271 940 263 928 b 119 965 217 928 192 965 b -4 803 39 965 -3 910 l 140 803 b 167 836 142 824 150 836 b 293 799 196 836 221 799 z "},"Ī":{"ha":458,"x_min":0,"x_max":0,"o":"m 114 0 l 344 0 l 344 975 l 114 975 z m 438 1218 l 21 1218 l 21 1068 l 438 1068 z "},"ī":{"ha":413,"x_min":0,"x_max":0,"o":"m 317 0 l 96 0 l 96 686 l 317 686 z m 414 953 l -3 953 l -3 803 l 414 803 z "},"Ĭ":{"ha":458,"x_min":0,"x_max":0,"o":""},"ĭ":{"ha":413,"x_min":0,"x_max":0,"o":"m 317 686 l 96 686 l 96 0 l 317 0 z m 206 782 b 418 974 333 782 418 860 l 257 974 b 206 918 257 940 236 918 b 154 974 175 918 154 940 l -7 974 b 206 782 -7 860 78 782 z "},"Į":{"ha":458,"x_min":0,"x_max":0,"o":"m 114 0 l 179 0 b 69 -160 113 -40 69 -104 b 264 -308 69 -253 144 -308 b 351 -301 296 -308 332 -306 l 351 -154 b 311 -158 340 -157 325 -158 b 256 -118 278 -158 256 -146 b 344 0 256 -90 283 -46 l 344 975 l 114 975 z "},"į":{"ha":413,"x_min":0,"x_max":0,"o":"m 42 -160 b 236 -308 42 -253 117 -308 b 324 -301 268 -308 304 -306 l 324 -154 b 283 -158 313 -157 297 -158 b 228 -118 250 -158 228 -146 b 317 0 228 -90 256 -46 l 317 686 l 96 686 l 96 0 l 151 0 b 42 -160 85 -40 42 -104 z m 72 881 b 206 749 72 810 133 749 b 339 881 279 749 339 810 b 206 1013 339 953 279 1013 b 72 881 133 1013 72 953 z "},"İ":{"ha":458,"x_min":0,"x_max":0,"o":""},"ı":{"ha":413,"x_min":0,"x_max":0,"o":"m 317 686 l 96 686 l 96 0 l 317 0 z "},"Ĳ":{"ha":1265,"x_min":0,"x_max":0,"o":"m 114 0 l 344 0 l 344 975 l 114 975 z m 826 -17 b 496 288 629 -17 496 106 l 496 322 l 726 322 l 726 288 b 826 188 726 225 763 188 b 926 288 890 188 926 225 l 926 975 l 1157 975 l 1157 288 b 826 -17 1157 106 1024 -17 z "},"ĳ":{"ha":825,"x_min":0,"x_max":0,"o":"m 317 0 l 96 0 l 96 686 l 317 686 z m 72 881 b 206 749 72 810 133 749 b 339 881 279 749 339 810 b 206 1013 339 953 279 1013 b 72 881 133 1013 72 953 z m 729 -15 b 450 -289 729 -210 621 -289 l 368 -289 l 368 -97 l 413 -97 b 508 1 471 -97 508 -69 l 508 686 l 729 686 z m 485 881 b 618 749 485 810 546 749 b 751 881 692 749 751 810 b 618 1013 751 953 692 1013 b 485 881 546 1013 485 953 z "},"Ĵ":{"ha":807,"x_min":0,"x_max":0,"o":""},"ĵ":{"ha":413,"x_min":0,"x_max":0,"o":"m 317 686 l 96 686 l 96 1 b 0 -97 96 -69 58 -97 l -44 -97 l -44 -289 l 38 -289 b 317 -15 208 -289 317 -210 z m 264 769 l 443 769 l 300 975 l 111 975 l -32 769 l 147 769 l 206 840 z "},"Ķ":{"ha":936,"x_min":0,"x_max":0,"o":"m 344 975 l 114 975 l 114 0 l 344 0 l 344 436 l 653 0 l 926 0 l 567 497 l 881 975 l 621 975 l 344 547 z m 372 -157 b 435 -254 372 -201 397 -239 l 393 -381 l 510 -381 l 579 -207 b 589 -157 585 -193 589 -169 b 481 -49 589 -100 546 -49 b 372 -157 418 -49 372 -100 z "},"ķ":{"ha":769,"x_min":0,"x_max":0,"o":"m 317 1003 l 96 1003 l 96 0 l 317 0 l 317 300 l 515 0 l 754 0 l 519 351 l 717 686 l 478 686 l 317 400 z m 299 -157 b 361 -254 299 -201 324 -239 l 319 -381 l 436 -381 l 506 -207 b 515 -157 511 -193 515 -169 b 407 -49 515 -100 472 -49 b 299 -157 344 -49 299 -100 z "},"ĸ":{"ha":769,"x_min":0,"x_max":0,"o":"m 317 686 l 96 686 l 96 0 l 317 0 l 317 300 l 515 0 l 754 0 l 519 351 l 717 686 l 478 686 l 317 400 z "},"Ĺ":{"ha":821,"x_min":0,"x_max":0,"o":""},"ĺ":{"ha":497,"x_min":0,"x_max":0,"o":"m 354 0 b 89 286 157 0 89 92 l 89 1003 l 310 1003 l 310 286 b 401 192 310 221 338 192 b 458 193 419 192 442 192 l 458 6 b 354 0 431 3 389 0 z m 224 1240 l 68 1035 l 268 1035 l 443 1240 z "},"Ļ":{"ha":821,"x_min":0,"x_max":0,"o":"m 344 975 l 114 975 l 114 0 l 810 0 l 810 204 l 344 204 z m 365 -157 b 428 -254 365 -201 390 -239 l 386 -381 l 503 -381 l 572 -207 b 582 -157 578 -193 582 -169 b 474 -49 582 -100 539 -49 b 365 -157 411 -49 365 -100 z "},"ļ":{"ha":497,"x_min":0,"x_max":0,"o":"m 354 0 b 458 6 389 0 431 3 l 458 193 b 401 192 442 192 419 192 b 310 286 338 192 310 221 l 310 1003 l 89 1003 l 89 286 b 354 0 89 92 157 0 z m 165 -157 b 228 -254 165 -201 190 -239 l 186 -381 l 303 -381 l 372 -207 b 382 -157 378 -193 382 -169 b 274 -49 382 -100 339 -49 b 165 -157 211 -49 165 -100 z "},"Ľ":{"ha":821,"x_min":0,"x_max":0,"o":"m 344 975 l 114 975 l 114 0 l 810 0 l 810 204 l 344 204 z m 439 901 b 501 804 439 857 464 819 l 460 678 l 576 678 l 646 851 b 656 901 651 865 656 889 b 547 1010 656 958 613 1010 b 439 901 485 1010 439 958 z "},"ľ":{"ha":574,"x_min":0,"x_max":0,"o":"m 354 0 b 89 286 157 0 89 92 l 89 1003 l 310 1003 l 310 286 b 401 192 310 221 338 192 b 458 193 419 192 442 192 l 458 6 b 354 0 431 3 389 0 z m 371 901 b 433 804 371 857 396 819 l 392 678 l 508 678 l 578 851 b 588 901 583 865 588 889 b 479 1010 588 958 544 1010 b 371 901 417 1010 371 958 z "},"Ŀ":{"ha":821,"x_min":0,"x_max":0,"o":""},"ŀ":{"ha":622,"x_min":0,"x_max":0,"o":"m 354 0 b 458 6 389 0 431 3 l 458 193 b 401 192 442 192 419 192 b 310 286 338 192 310 221 l 310 1003 l 89 1003 l 89 286 b 354 0 89 92 157 0 z m 504 401 b 608 506 560 401 608 450 b 504 610 608 561 560 610 b 400 506 449 610 400 561 b 504 401 400 450 449 401 z "},"Ł":{"ha":821,"x_min":0,"x_max":0,"o":"m 24 472 l 24 300 l 114 335 l 114 0 l 810 0 l 810 204 l 344 204 l 344 424 l 579 515 l 579 688 l 344 596 l 344 975 l 114 975 l 114 507 z "},"ł":{"ha":504,"x_min":0,"x_max":0,"o":"m 8 493 l 8 321 l 96 353 l 96 286 b 361 0 96 92 164 0 b 465 6 396 0 438 3 l 465 193 b 408 192 449 192 426 192 b 317 286 344 192 317 221 l 317 433 l 465 489 l 465 661 l 317 606 l 317 1003 l 96 1003 l 96 525 z "},"Ń":{"ha":1032,"x_min":0,"x_max":0,"o":""},"ń":{"ha":842,"x_min":0,"x_max":0,"o":"m 751 0 l 531 0 l 531 404 b 436 510 531 472 492 510 b 317 358 371 510 317 463 l 317 0 l 96 0 l 96 686 l 317 686 l 317 618 b 497 703 346 665 415 703 b 751 443 650 703 751 600 z m 438 975 l 282 769 l 482 769 l 657 975 z "},"Ņ":{"ha":1032,"x_min":0,"x_max":0,"o":"m 344 975 l 114 975 l 114 0 l 344 0 l 344 590 b 368 532 349 568 356 551 l 688 0 l 918 0 l 918 975 l 688 975 l 688 383 b 664 443 683 406 676 422 z m 421 -157 b 483 -254 421 -201 446 -239 l 442 -381 l 558 -381 l 628 -207 b 638 -157 633 -193 638 -169 b 529 -49 638 -100 594 -49 b 421 -157 467 -49 421 -100 z "},"ņ":{"ha":842,"x_min":0,"x_max":0,"o":"m 751 443 b 497 703 751 600 650 703 b 317 618 415 703 346 665 l 317 686 l 96 686 l 96 0 l 317 0 l 317 358 b 436 510 317 463 371 510 b 531 404 492 510 531 472 l 531 0 l 751 0 z m 313 -157 b 375 -254 313 -201 338 -239 l 333 -381 l 450 -381 l 519 -207 b 529 -157 525 -193 529 -169 b 421 -49 529 -100 486 -49 b 313 -157 358 -49 313 -100 z "},"Ň":{"ha":1032,"x_min":0,"x_max":0,"o":""},"ň":{"ha":842,"x_min":0,"x_max":0,"o":"m 751 0 l 531 0 l 531 404 b 436 510 531 472 492 510 b 317 358 371 510 317 463 l 317 0 l 96 0 l 96 686 l 317 686 l 317 618 b 497 703 346 665 415 703 b 751 443 650 703 751 600 z m 421 904 l 363 975 l 183 975 l 326 769 l 515 769 l 658 975 l 479 975 z "},"ŉ":{"ha":917,"x_min":0,"x_max":0,"o":"m 826 0 l 606 0 l 606 404 b 511 510 606 472 567 510 b 392 358 446 510 392 463 l 392 0 l 171 0 l 171 686 l 392 686 l 392 618 b 572 703 421 665 490 703 b 826 443 725 703 826 600 z m -14 901 b 49 804 -14 857 11 819 l 7 678 l 124 678 l 193 851 b 203 901 199 865 203 889 b 94 1010 203 958 160 1010 b -14 901 32 1010 -14 958 z "},"Ŋ":{"ha":1032,"x_min":0,"x_max":0,"o":"m 344 975 l 114 975 l 114 0 l 344 0 l 344 589 b 368 532 349 567 356 550 l 688 0 b 592 -85 683 -60 646 -85 l 547 -85 l 547 -289 l 639 -289 b 918 -15 810 -289 918 -210 l 918 975 l 688 975 l 688 386 b 664 443 683 406 676 422 z "},"ŋ":{"ha":842,"x_min":0,"x_max":0,"o":"m 751 443 b 497 703 751 600 650 703 b 317 618 415 703 346 665 l 317 686 l 96 686 l 96 0 l 317 0 l 317 358 b 436 510 317 463 371 510 b 531 404 492 510 531 472 l 531 1 b 435 -97 531 -69 493 -97 l 390 -97 l 390 -289 l 472 -289 b 751 -15 643 -289 751 -210 z "},"Ō":{"ha":1164,"x_min":0,"x_max":0,"o":"m 582 189 b 296 488 415 189 296 326 b 582 786 296 649 415 786 b 868 488 749 786 868 649 b 582 189 868 326 749 189 z m 582 992 b 64 488 286 992 64 772 b 582 -17 64 203 286 -17 b 1100 488 878 -17 1100 203 b 582 992 1100 772 878 992 z m 790 1218 l 374 1218 l 374 1068 l 790 1068 z "},"ō":{"ha":878,"x_min":0,"x_max":0,"o":"m 439 703 b 56 343 215 703 56 543 b 439 -17 56 143 215 -17 b 822 343 663 -17 822 143 b 439 703 822 543 663 703 z m 439 176 b 278 343 347 176 278 247 b 439 510 278 439 347 510 b 600 343 531 510 600 439 b 439 176 600 247 531 176 z m 647 953 l 231 953 l 231 803 l 647 803 z "},"Ŏ":{"ha":1164,"x_min":0,"x_max":0,"o":""},"ŏ":{"ha":878,"x_min":0,"x_max":0,"o":"m 439 703 b 56 343 215 703 56 543 b 439 -17 56 143 215 -17 b 822 343 663 -17 822 143 b 439 703 822 543 663 703 z m 439 176 b 278 343 347 176 278 247 b 439 510 278 439 347 510 b 600 343 531 510 600 439 b 439 176 600 247 531 176 z m 439 782 b 651 974 567 782 651 860 l 490 974 b 439 918 490 940 469 918 b 388 974 408 918 388 940 l 226 974 b 439 782 226 860 311 782 z "},"Ő":{"ha":1164,"x_min":0,"x_max":0,"o":""},"ő":{"ha":878,"x_min":0,"x_max":0,"o":"m 439 703 b 56 343 215 703 56 543 b 439 -17 56 143 215 -17 b 822 343 663 -17 822 143 b 439 703 822 543 663 703 z m 439 176 b 278 343 347 176 278 247 b 439 510 278 439 347 510 b 600 343 531 510 600 439 b 439 176 600 247 531 176 z m 619 975 l 464 769 l 650 769 l 825 975 z m 358 975 l 203 769 l 389 769 l 564 975 z "},"Œ":{"ha":1488,"x_min":0,"x_max":0,"o":"m 1407 0 l 1407 204 l 950 204 l 950 397 l 1372 397 l 1372 596 l 950 596 l 950 771 l 1393 771 l 1393 975 l 585 975 b 64 488 289 975 64 782 b 585 0 64 193 289 0 z m 296 488 b 585 771 296 658 418 771 l 719 771 l 719 204 l 585 204 b 296 488 418 204 296 317 z "},"œ":{"ha":1403,"x_min":0,"x_max":0,"o":"m 439 703 b 56 343 215 703 56 543 b 439 -17 56 143 215 -17 b 710 94 547 -17 646 18 b 975 -17 772 18 868 -17 b 1339 235 1160 -17 1310 89 l 1107 235 b 975 165 1086 194 1043 165 b 824 290 893 165 836 213 l 1344 290 b 1347 343 1346 304 1347 325 b 974 703 1347 540 1194 703 b 710 590 865 703 771 667 b 439 703 646 667 547 703 z m 974 521 b 1117 425 1049 521 1100 481 l 831 425 b 974 521 850 486 901 521 z m 439 176 b 278 343 347 176 278 247 b 439 510 278 439 347 510 b 600 343 531 510 600 439 b 439 176 600 247 531 176 z "},"Ŕ":{"ha":939,"x_min":0,"x_max":0,"o":""},"ŕ":{"ha":601,"x_min":0,"x_max":0,"o":"m 560 507 b 519 510 551 508 532 510 b 317 254 394 510 317 429 l 317 0 l 96 0 l 96 686 l 317 686 l 317 578 b 507 703 339 654 404 703 b 560 699 525 703 544 701 z m 332 975 l 176 769 l 376 769 l 551 975 z "},"Ŗ":{"ha":939,"x_min":0,"x_max":0,"o":"m 628 0 l 878 0 l 660 403 b 856 675 783 447 856 540 b 476 975 856 867 708 975 l 114 975 l 114 0 l 344 0 l 344 375 l 438 375 z m 624 675 b 479 565 624 606 574 565 l 344 565 l 344 785 l 479 785 b 624 675 574 785 624 744 z m 368 -157 b 431 -254 368 -201 393 -239 l 389 -381 l 506 -381 l 575 -207 b 585 -157 581 -193 585 -169 b 476 -49 585 -100 542 -49 b 368 -157 414 -49 368 -100 z "},"ŗ":{"ha":601,"x_min":0,"x_max":0,"o":"m 560 699 b 507 703 544 701 525 703 b 317 578 404 703 339 654 l 317 686 l 96 686 l 96 0 l 317 0 l 317 254 b 519 510 317 429 394 510 b 560 507 532 510 551 508 z m 99 -157 b 161 -254 99 -201 124 -239 l 119 -381 l 236 -381 l 306 -207 b 315 -157 311 -193 315 -169 b 207 -49 315 -100 272 -49 b 99 -157 144 -49 99 -100 z "},"Ř":{"ha":939,"x_min":0,"x_max":0,"o":""},"ř":{"ha":601,"x_min":0,"x_max":0,"o":"m 560 507 b 519 510 551 508 532 510 b 317 254 394 510 317 429 l 317 0 l 96 0 l 96 686 l 317 686 l 317 578 b 507 703 339 654 404 703 b 560 699 525 703 544 701 z m 325 904 l 267 975 l 88 975 l 231 769 l 419 769 l 563 975 l 383 975 z "},"Ś":{"ha":922,"x_min":0,"x_max":0,"o":""},"ś":{"ha":732,"x_min":0,"x_max":0,"o":"m 453 206 b 349 260 453 236 431 251 b 69 485 153 279 69 350 b 350 703 69 594 167 703 b 656 465 546 703 643 599 l 435 465 b 354 531 429 501 404 531 b 289 485 308 531 289 508 b 396 429 289 456 314 438 b 675 210 592 410 675 344 b 386 -17 675 86 561 -17 b 64 224 189 -17 85 83 l 289 224 b 381 156 297 186 329 156 b 453 206 428 156 453 176 z m 369 975 l 214 769 l 414 769 l 589 975 z "},"Ŝ":{"ha":922,"x_min":0,"x_max":0,"o":""},"ŝ":{"ha":732,"x_min":0,"x_max":0,"o":"m 453 206 b 381 156 453 176 428 156 b 289 224 329 156 297 186 l 64 224 b 386 -17 85 83 189 -17 b 675 210 561 -17 675 86 b 396 429 675 344 592 410 b 289 485 314 438 289 456 b 354 531 289 508 308 531 b 435 465 404 531 429 501 l 656 465 b 350 703 643 599 546 703 b 69 485 167 703 69 594 b 349 260 69 350 153 279 b 453 206 431 251 453 236 z m 415 769 l 594 769 l 451 975 l 263 975 l 119 769 l 299 769 l 357 840 z "},"Ş":{"ha":922,"x_min":0,"x_max":0,"o":"m 625 285 b 479 178 625 229 578 178 b 308 294 386 178 324 219 l 74 294 b 415 -12 96 125 218 7 l 390 -97 l 425 -121 b 476 -149 461 -121 476 -132 b 432 -178 476 -167 463 -178 b 365 -171 413 -178 386 -175 l 363 -297 b 469 -308 396 -304 436 -308 b 663 -165 590 -308 663 -251 b 560 -54 663 -110 619 -71 l 574 -8 b 857 300 763 22 857 151 b 501 597 857 476 739 572 b 315 707 356 613 315 647 b 450 797 315 756 360 797 b 601 681 535 797 593 750 l 836 681 b 444 992 819 865 679 992 b 83 701 215 992 83 858 b 438 400 83 522 197 426 b 625 285 594 383 625 347 z "},"ş":{"ha":732,"x_min":0,"x_max":0,"o":"m 453 206 b 381 156 453 176 428 156 b 289 224 329 156 297 186 l 64 224 b 306 -10 82 104 160 13 l 279 -97 l 314 -121 b 365 -149 350 -121 365 -132 b 321 -178 365 -167 351 -178 b 254 -171 301 -178 275 -175 l 251 -297 b 358 -308 285 -304 325 -308 b 551 -165 479 -308 551 -251 b 449 -54 551 -110 508 -71 l 463 -8 b 675 210 593 17 675 106 b 396 429 675 344 592 410 b 289 485 314 438 289 456 b 354 531 289 508 308 531 b 435 465 404 531 429 501 l 656 465 b 350 703 643 599 546 703 b 69 485 167 703 69 594 b 349 260 69 350 153 279 b 453 206 431 251 453 236 z "},"Š":{"ha":922,"x_min":0,"x_max":0,"o":""},"š":{"ha":732,"x_min":0,"x_max":0,"o":"m 453 206 b 349 260 453 236 431 251 b 69 485 153 279 69 350 b 350 703 69 594 167 703 b 656 465 546 703 643 599 l 435 465 b 354 531 429 501 404 531 b 289 485 308 531 289 508 b 396 429 289 456 314 438 b 675 210 592 410 675 344 b 386 -17 675 86 561 -17 b 64 224 189 -17 85 83 l 289 224 b 381 156 297 186 329 156 b 453 206 428 156 453 176 z m 357 904 l 299 975 l 119 975 l 263 769 l 451 769 l 594 975 l 415 975 z "},"Ţ":{"ha":875,"x_min":0,"x_max":0,"o":"m 32 975 l 32 771 l 322 771 l 322 0 l 364 0 l 335 -97 l 369 -121 b 421 -149 406 -121 421 -132 b 376 -178 421 -167 407 -178 b 310 -171 357 -178 331 -175 l 307 -297 b 414 -308 340 -304 381 -308 b 607 -165 535 -308 607 -251 b 504 -54 607 -110 564 -71 l 521 0 l 553 0 l 553 771 l 843 771 l 843 975 z "},"ţ":{"ha":613,"x_min":0,"x_max":0,"o":"m 440 0 b 546 6 475 0 518 3 l 546 193 b 488 192 529 192 506 192 b 375 286 410 192 375 221 l 375 494 l 546 494 l 546 686 l 375 686 l 375 894 l 154 867 l 154 686 l 39 686 l 39 494 l 154 494 l 154 286 b 289 24 154 149 193 63 l 251 -97 l 286 -121 b 338 -149 322 -121 338 -132 b 293 -178 338 -167 324 -178 b 226 -171 274 -178 247 -175 l 224 -297 b 331 -308 257 -304 297 -308 b 524 -165 451 -308 524 -251 b 421 -54 524 -110 481 -71 l 438 0 z "},"Ť":{"ha":875,"x_min":0,"x_max":0,"o":""},"ť":{"ha":758,"x_min":0,"x_max":0,"o":"m 440 0 b 154 286 235 0 154 92 l 154 494 l 39 494 l 39 686 l 154 686 l 154 867 l 375 894 l 375 686 l 546 686 l 546 494 l 375 494 l 375 286 b 488 192 375 221 410 192 b 546 193 506 192 529 192 l 546 6 b 440 0 518 3 475 0 z m 556 901 b 618 804 556 857 581 819 l 576 678 l 693 678 l 763 851 b 772 901 768 865 772 889 b 664 1010 772 958 729 1010 b 556 901 601 1010 556 958 z "},"Ŧ":{"ha":875,"x_min":0,"x_max":0,"o":"m 32 975 l 32 771 l 322 771 l 322 522 l 163 522 l 163 356 l 322 356 l 322 0 l 553 0 l 553 356 l 713 356 l 713 522 l 553 522 l 553 771 l 843 771 l 843 975 z "},"ŧ":{"ha":613,"x_min":0,"x_max":0,"o":"m 375 425 l 375 494 l 546 494 l 546 686 l 375 686 l 375 894 l 154 867 l 154 686 l 39 686 l 39 494 l 154 494 l 154 425 l 65 425 l 65 275 l 154 275 b 440 0 157 88 239 0 b 546 6 475 0 518 3 l 546 196 b 479 192 526 193 500 192 b 375 275 410 192 376 214 l 513 275 l 513 425 z "},"Ũ":{"ha":1025,"x_min":0,"x_max":0,"o":""},"ũ":{"ha":842,"x_min":0,"x_max":0,"o":"m 90 686 l 311 686 l 311 282 b 406 176 311 214 350 176 b 525 328 471 176 525 224 l 525 686 l 746 686 l 746 0 l 525 0 l 525 68 b 344 -17 496 21 426 -17 b 90 243 192 -17 90 86 z m 506 799 b 629 961 586 799 628 854 l 485 961 b 458 928 483 940 475 928 b 332 965 429 928 404 965 b 208 803 251 965 210 910 l 353 803 b 379 836 354 824 363 836 b 506 799 408 836 433 799 z "},"Ū":{"ha":1025,"x_min":0,"x_max":0,"o":"m 513 -17 b 917 383 763 -17 917 129 l 917 975 l 686 975 l 686 393 b 513 188 686 261 629 188 b 339 393 396 188 339 261 l 339 975 l 108 975 l 108 383 b 513 -17 108 129 263 -17 z m 721 1218 l 304 1218 l 304 1068 l 721 1068 z "},"ū":{"ha":842,"x_min":0,"x_max":0,"o":"m 90 686 l 311 686 l 311 282 b 406 176 311 214 350 176 b 525 328 471 176 525 224 l 525 686 l 746 686 l 746 0 l 525 0 l 525 68 b 344 -17 496 21 426 -17 b 90 243 192 -17 90 86 z m 626 953 l 210 953 l 210 803 l 626 803 z "},"Ŭ":{"ha":1025,"x_min":0,"x_max":0,"o":""},"ŭ":{"ha":842,"x_min":0,"x_max":0,"o":"m 90 243 b 344 -17 90 86 192 -17 b 525 68 426 -17 496 21 l 525 0 l 746 0 l 746 686 l 525 686 l 525 328 b 406 176 525 224 471 176 b 311 282 350 176 311 214 l 311 686 l 90 686 z m 418 782 b 631 974 546 782 631 860 l 469 974 b 418 918 469 940 449 918 b 367 974 388 918 367 940 l 206 974 b 418 782 206 860 290 782 z "},"Ů":{"ha":1025,"x_min":0,"x_max":0,"o":""},"ů":{"ha":842,"x_min":0,"x_max":0,"o":"m 90 686 l 311 686 l 311 282 b 406 176 311 214 350 176 b 525 328 471 176 525 224 l 525 686 l 746 686 l 746 0 l 525 0 l 525 68 b 344 -17 496 21 426 -17 b 90 243 192 -17 90 86 z m 418 856 b 388 885 401 856 388 868 b 418 914 388 901 401 914 b 449 885 435 914 449 901 b 418 856 449 868 435 856 z m 418 1019 b 272 885 340 1019 272 961 b 418 750 272 808 340 750 b 564 885 496 750 564 808 b 418 1019 564 961 496 1019 z "},"Ű":{"ha":1025,"x_min":0,"x_max":0,"o":""},"ű":{"ha":842,"x_min":0,"x_max":0,"o":"m 90 686 l 311 686 l 311 282 b 406 176 311 214 350 176 b 525 328 471 176 525 224 l 525 686 l 746 686 l 746 0 l 525 0 l 525 68 b 344 -17 496 21 426 -17 b 90 243 192 -17 90 86 z m 575 975 l 419 769 l 606 769 l 781 975 z m 314 975 l 158 769 l 344 769 l 519 975 z "},"Ų":{"ha":1025,"x_min":0,"x_max":0,"o":"m 367 -160 b 561 -308 367 -253 442 -308 b 649 -301 593 -308 629 -306 l 649 -154 b 608 -158 638 -157 622 -158 b 553 -118 575 -158 553 -146 b 632 -4 553 -92 578 -47 b 917 383 811 36 917 172 l 917 975 l 686 975 l 686 393 b 513 188 686 261 629 188 b 339 393 396 188 339 261 l 339 975 l 108 975 l 108 383 b 453 -12 108 150 238 8 b 367 -160 399 -53 367 -111 z "},"ų":{"ha":842,"x_min":0,"x_max":0,"o":"m 415 -160 b 610 -308 415 -253 490 -308 b 697 -301 642 -308 678 -306 l 697 -154 b 657 -158 686 -157 671 -158 b 601 -118 624 -158 601 -146 b 690 0 601 -90 629 -46 l 746 0 l 746 686 l 525 686 l 525 328 b 406 176 525 224 471 176 b 311 282 350 176 311 214 l 311 686 l 90 686 l 90 243 b 344 -17 90 86 192 -17 b 525 68 426 -17 496 21 l 525 0 b 415 -160 458 -40 415 -104 z "},"Ŵ":{"ha":1483,"x_min":0,"x_max":0,"o":""},"ŵ":{"ha":1153,"x_min":0,"x_max":0,"o":"m 465 686 l 368 326 b 360 283 364 313 361 300 b 353 326 358 299 357 311 l 261 686 l 36 686 l 239 0 l 461 0 l 568 393 b 576 433 572 407 575 418 b 585 393 578 418 581 407 l 692 0 l 914 0 l 1117 686 l 892 686 l 800 326 b 793 283 796 311 794 299 b 785 326 792 300 789 313 l 688 686 z m 635 769 l 814 769 l 671 975 l 482 975 l 339 769 l 518 769 l 576 840 z "},"Ŷ":{"ha":978,"x_min":0,"x_max":0,"o":""},"ŷ":{"ha":817,"x_min":0,"x_max":0,"o":"m 779 686 l 551 686 l 417 297 b 408 258 413 283 410 272 b 400 297 407 272 404 283 l 265 686 l 38 686 l 297 0 l 276 -56 b 167 -132 253 -117 225 -132 b 115 -129 151 -132 129 -131 l 115 -311 b 193 -317 139 -314 169 -317 b 475 -119 365 -317 424 -257 z m 467 769 l 646 769 l 503 975 l 314 975 l 171 769 l 350 769 l 408 840 z "},"Ÿ":{"ha":978,"x_min":0,"x_max":0,"o":""},"Ź":{"ha":886,"x_min":0,"x_max":0,"o":""},"ź":{"ha":728,"x_min":0,"x_max":0,"o":"m 661 192 l 347 192 l 647 501 l 647 686 l 71 686 l 71 494 l 364 494 l 64 185 l 64 0 l 661 0 z m 385 975 l 229 769 l 429 769 l 604 975 z "},"Ż":{"ha":886,"x_min":0,"x_max":0,"o":""},"ż":{"ha":728,"x_min":0,"x_max":0,"o":"m 661 192 l 347 192 l 647 501 l 647 686 l 71 686 l 71 494 l 364 494 l 64 185 l 64 0 l 661 0 z m 372 774 b 476 878 428 774 476 822 b 372 982 476 933 428 982 b 268 878 317 982 268 933 b 372 774 268 822 317 774 z "},"Ž":{"ha":886,"x_min":0,"x_max":0,"o":""},"ž":{"ha":728,"x_min":0,"x_max":0,"o":"m 661 192 l 347 192 l 647 501 l 647 686 l 71 686 l 71 494 l 364 494 l 64 185 l 64 0 l 661 0 z m 372 904 l 314 975 l 135 975 l 278 769 l 467 769 l 610 975 l 431 975 z "},"ſ":{"ha":594,"x_min":0,"x_max":0,"o":"m 446 1003 b 160 717 240 1003 160 911 l 160 686 l 44 686 l 44 494 l 160 494 l 160 0 l 381 0 l 381 717 b 493 811 381 782 415 811 b 550 810 511 811 533 811 l 550 997 b 446 1003 522 1000 481 1003 z "},"ƒ":{"ha":778,"x_min":0,"x_max":0,"o":"m 660 494 l 660 686 l 497 686 l 506 753 b 618 847 513 818 540 847 b 675 846 636 847 658 847 l 675 1033 b 571 1039 647 1036 606 1039 b 285 753 365 1039 307 946 l 276 686 l 142 686 l 142 494 l 256 494 l 208 76 b 96 -18 201 11 174 -18 b 39 -17 78 -18 56 -18 l 39 -204 b 143 -210 67 -207 108 -210 b 429 76 349 -210 407 -117 l 476 494 z "},"Ș":{"ha":922,"x_min":0,"x_max":0,"o":"m 625 285 b 479 178 625 229 578 178 b 308 294 386 178 324 219 l 74 294 b 481 -17 99 108 246 -17 b 857 300 732 -17 857 129 b 501 597 857 476 739 572 b 315 707 356 613 315 647 b 450 797 315 756 360 797 b 601 681 535 797 593 750 l 836 681 b 444 992 819 865 679 992 b 83 701 215 992 83 858 b 438 400 83 522 197 426 b 625 285 594 383 625 347 z m 386 -157 b 449 -254 386 -201 411 -239 l 407 -381 l 524 -381 l 593 -207 b 603 -157 599 -193 603 -169 b 494 -49 603 -100 560 -49 b 386 -157 432 -49 386 -100 z "},"ș":{"ha":732,"x_min":0,"x_max":0,"o":"m 453 206 b 381 156 453 176 428 156 b 289 224 329 156 297 186 l 64 224 b 386 -17 85 83 189 -17 b 675 210 561 -17 675 86 b 396 429 675 344 592 410 b 289 485 314 438 289 456 b 354 531 289 508 308 531 b 435 465 404 531 429 501 l 656 465 b 350 703 643 599 546 703 b 69 485 167 703 69 594 b 349 260 69 350 153 279 b 453 206 431 251 453 236 z m 283 -157 b 346 -254 283 -201 308 -239 l 304 -381 l 421 -381 l 490 -207 b 500 -157 496 -193 500 -169 b 392 -49 500 -100 457 -49 b 283 -157 329 -49 283 -100 z "},"Ț":{"ha":875,"x_min":0,"x_max":0,"o":"m 32 975 l 32 771 l 322 771 l 322 0 l 553 0 l 553 771 l 843 771 l 843 975 z m 329 -157 b 392 -254 329 -201 354 -239 l 350 -381 l 467 -381 l 536 -207 b 546 -157 542 -193 546 -169 b 438 -49 546 -100 503 -49 b 329 -157 375 -49 329 -100 z "},"ț":{"ha":615,"x_min":0,"x_max":0,"o":"m 440 0 b 546 6 475 0 518 3 l 546 193 b 488 192 529 192 506 192 b 375 286 410 192 375 221 l 375 494 l 546 494 l 546 686 l 375 686 l 375 894 l 154 867 l 154 686 l 39 686 l 39 494 l 154 494 l 154 286 b 440 0 154 92 235 0 z m 249 -157 b 311 -254 249 -201 274 -239 l 269 -381 l 386 -381 l 456 -207 b 465 -157 461 -193 465 -169 b 357 -49 465 -100 422 -49 b 249 -157 294 -49 249 -100 z "},"ˆ":{"ha":542,"x_min":0,"x_max":0,"o":"m 329 769 l 508 769 l 365 975 l 176 975 l 33 769 l 213 769 l 271 840 z "},"ˇ":{"ha":542,"x_min":0,"x_max":0,"o":"m 271 904 l 213 975 l 33 975 l 176 769 l 365 769 l 508 975 l 329 975 z "},"˘":{"ha":542,"x_min":0,"x_max":0,"o":"m 271 782 b 483 974 399 782 483 860 l 322 974 b 271 918 322 940 301 918 b 219 974 240 918 219 940 l 58 974 b 271 782 58 860 143 782 z "},"˙":{"ha":542,"x_min":0,"x_max":0,"o":"m 271 785 b 375 889 326 785 375 833 b 271 993 375 944 326 993 b 167 889 215 993 167 944 b 271 785 167 833 215 785 z "},"˚":{"ha":542,"x_min":0,"x_max":0,"o":"m 271 860 b 240 889 254 860 240 872 b 271 918 240 906 254 918 b 301 889 288 918 301 906 b 271 860 301 872 288 860 z m 271 1024 b 125 889 193 1024 125 965 b 271 754 125 813 193 754 b 417 889 349 754 417 813 b 271 1024 417 965 349 1024 z "},"˛":{"ha":542,"x_min":0,"x_max":0,"o":"m 124 -160 b 318 -308 124 -253 199 -308 b 406 -301 350 -308 386 -306 l 406 -154 b 365 -158 394 -157 379 -158 b 310 -118 332 -158 310 -146 b 418 14 310 -87 343 -37 l 260 14 b 124 -160 178 -25 124 -97 z "},"˜":{"ha":542,"x_min":0,"x_max":0,"o":"m 357 806 b 481 968 438 806 479 861 l 336 968 b 310 935 335 947 326 935 b 183 972 281 935 256 972 b 60 810 103 972 61 917 l 204 810 b 231 843 206 831 214 843 b 357 806 260 843 285 806 z "},"˝":{"ha":542,"x_min":0,"x_max":0,"o":"m 376 975 l 221 769 l 407 769 l 582 975 z m 115 975 l -40 769 l 146 769 l 321 975 z "},"–":{"ha":694,"x_min":0,"x_max":0,"o":"m 81 482 l 81 296 l 614 296 l 614 482 z "},"—":{"ha":1111,"x_min":0,"x_max":0,"o":"m 81 482 l 81 296 l 1031 296 l 1031 482 z "},"‘":{"ha":442,"x_min":0,"x_max":0,"o":"m 354 739 b 274 860 354 792 321 839 l 329 1031 l 189 1031 l 100 799 b 88 739 93 781 88 756 b 221 607 88 667 147 607 b 354 739 293 607 354 667 z "},"’":{"ha":442,"x_min":0,"x_max":0,"o":"m 88 903 b 168 782 88 850 121 803 l 113 611 l 253 611 l 342 843 b 354 903 349 861 354 886 b 221 1035 354 975 294 1035 b 88 903 149 1035 88 975 z "},"‚":{"ha":442,"x_min":0,"x_max":0,"o":"m 88 115 b 168 -6 88 63 121 15 l 113 -176 l 253 -176 l 342 56 b 354 115 349 74 354 99 b 221 247 354 188 294 247 b 88 115 149 247 88 188 z "},"“":{"ha":767,"x_min":0,"x_max":0,"o":"m 354 739 b 274 860 354 792 321 839 l 329 1031 l 189 1031 l 100 799 b 88 739 93 781 88 756 b 221 607 88 667 147 607 b 354 739 293 607 354 667 z m 679 739 b 599 860 679 792 646 839 l 654 1031 l 514 1031 l 425 799 b 413 739 418 781 413 756 b 546 607 413 667 472 607 b 679 739 618 607 679 667 z "},"”":{"ha":767,"x_min":0,"x_max":0,"o":"m 413 903 b 493 782 413 850 446 803 l 438 611 l 578 611 l 667 843 b 679 903 674 861 679 886 b 546 1035 679 975 619 1035 b 413 903 474 1035 413 975 z m 88 903 b 168 782 88 850 121 803 l 113 611 l 253 611 l 342 843 b 354 903 349 861 354 886 b 221 1035 354 975 294 1035 b 88 903 149 1035 88 975 z "},"„":{"ha":767,"x_min":0,"x_max":0,"o":"m 88 115 b 168 -6 88 63 121 15 l 113 -176 l 253 -176 l 342 56 b 354 115 349 74 354 99 b 221 247 354 188 294 247 b 88 115 149 247 88 188 z m 413 115 b 493 -6 413 63 446 15 l 438 -176 l 578 -176 l 667 56 b 679 115 674 74 679 99 b 546 247 679 188 619 247 b 413 115 474 247 413 188 z "},"†":{"ha":817,"x_min":0,"x_max":0,"o":"m 517 0 l 517 588 l 733 588 l 733 764 l 517 764 l 517 975 l 300 975 l 300 764 l 83 764 l 83 588 l 300 588 l 300 0 z "},"•":{"ha":478,"x_min":0,"x_max":0,"o":"m 239 336 b 390 486 321 336 390 404 b 239 636 390 568 321 636 b 88 486 157 636 88 568 b 239 336 88 404 157 336 z "},"…":{"ha":1325,"x_min":0,"x_max":0,"o":"m 354 115 b 221 247 354 188 293 247 b 88 115 149 247 88 188 b 221 -17 88 43 149 -17 b 354 115 293 -17 354 43 z m 796 115 b 663 247 796 188 735 247 b 529 115 590 247 529 188 b 663 -17 529 43 590 -17 b 796 115 735 -17 796 43 z m 1238 115 b 1104 247 1238 188 1176 247 b 971 115 1032 247 971 188 b 1104 -17 971 43 1032 -17 b 1238 115 1176 -17 1238 43 z "},"‰":{"ha":1882,"x_min":0,"x_max":0,"o":"m 1001 975 l 818 975 l 319 0 l 503 0 z m 321 992 b 69 750 186 992 69 885 b 321 508 69 615 186 508 b 572 750 456 508 572 615 b 321 992 572 885 456 992 z m 321 828 b 399 750 363 828 399 793 b 321 672 399 707 363 672 b 243 750 279 672 243 707 b 321 828 243 793 279 828 z m 1000 -17 b 1251 225 1135 -17 1251 90 b 1000 467 1251 360 1135 467 b 749 225 865 467 749 360 b 1000 -17 749 90 865 -17 z m 1000 147 b 922 225 958 147 922 182 b 1000 303 922 268 958 303 b 1078 225 1042 303 1078 268 b 1000 147 1078 182 1042 147 z m 1561 -17 b 1813 225 1696 -17 1813 90 b 1561 467 1813 360 1696 467 b 1310 225 1426 467 1310 360 b 1561 -17 1310 90 1426 -17 z m 1561 147 b 1483 225 1519 147 1483 182 b 1561 303 1483 268 1519 303 b 1639 225 1603 303 1639 268 b 1561 147 1639 182 1603 147 z "},"‹":{"ha":504,"x_min":0,"x_max":0,"o":"m 64 443 l 221 208 l 440 208 l 282 443 l 440 678 l 221 678 z "},"›":{"ha":504,"x_min":0,"x_max":0,"o":"m 283 678 l 64 678 l 222 443 l 64 208 l 283 208 l 440 443 z "},"⁄":{"ha":163,"x_min":0,"x_max":0,"o":"m 440 975 l 263 975 l -278 0 l -100 0 z "},"€":{"ha":864,"x_min":0,"x_max":0,"o":"m 458 632 b 725 786 506 722 600 786 l 725 992 b 213 632 467 992 274 843 l 103 632 l 103 524 l 194 524 b 193 488 193 511 193 499 b 194 451 193 475 193 463 l 103 451 l 103 343 l 213 343 b 725 -17 274 132 467 -17 l 725 189 b 458 343 600 189 506 251 l 653 343 l 653 451 l 426 451 b 425 488 425 463 425 475 b 426 524 425 499 425 511 l 653 524 l 653 632 z "},"™":{"ha":919,"x_min":0,"x_max":0,"o":"m 665 635 l 713 746 b 719 771 715 751 718 761 l 719 574 l 856 574 l 856 975 l 699 975 l 639 836 b 629 808 635 826 631 817 b 619 836 628 817 624 826 l 560 975 l 403 975 l 403 574 l 539 574 l 539 771 b 546 746 540 761 543 751 l 593 635 z m 375 975 l 375 850 l 279 850 l 279 574 l 129 574 l 129 850 l 33 850 l 33 975 z "},"−":{"ha":825,"x_min":0,"x_max":0,"o":"m 86 579 l 86 393 l 739 393 l 739 579 z "},"∞":{"ha":1033,"x_min":0,"x_max":0,"o":"m 285 485 b 333 532 285 515 307 532 b 413 485 353 532 385 515 b 333 438 385 454 353 438 b 285 485 307 438 285 454 z m 749 485 b 700 438 749 454 726 438 b 621 485 681 438 649 454 b 700 532 649 515 681 532 b 749 485 726 532 749 515 z m 517 383 b 732 279 575 318 656 279 b 939 485 851 279 939 351 b 732 690 939 618 851 690 b 517 586 656 690 575 651 b 301 690 458 651 378 690 b 94 485 182 690 94 618 b 301 279 94 351 182 279 b 517 383 378 279 458 318 z "},"≈":{"ha":825,"x_min":0,"x_max":0,"o":"m 554 183 b 746 460 672 183 743 271 l 551 460 b 501 386 546 400 528 386 b 271 467 450 386 393 467 b 79 190 153 467 82 379 l 274 190 b 324 264 279 250 297 264 b 554 183 375 264 432 183 z m 554 506 b 746 782 672 506 743 593 l 551 782 b 501 708 546 722 528 708 b 271 789 450 708 393 789 b 79 513 153 789 82 701 l 274 513 b 324 586 279 572 297 586 b 554 506 375 586 432 506 z "},"≠":{"ha":825,"x_min":0,"x_max":0,"o":"m 86 731 l 86 544 l 354 544 l 297 428 l 86 428 l 86 242 l 206 242 l 132 90 l 293 90 l 367 242 l 739 242 l 739 428 l 458 428 l 515 544 l 739 544 l 739 731 l 607 731 l 682 882 l 521 882 l 446 731 z "},"≤":{"ha":825,"x_min":0,"x_max":0,"o":"m 86 200 l 86 14 l 739 14 l 739 200 z m 739 229 l 739 431 l 350 578 l 739 724 l 739 926 l 86 674 l 86 482 z "},"≥":{"ha":825,"x_min":0,"x_max":0,"o":"m 739 200 l 739 14 l 86 14 l 86 200 z m 739 482 l 739 674 l 86 926 l 86 724 l 475 578 l 86 431 l 86 229 z "},"ﬁ":{"ha":994,"x_min":0,"x_max":0,"o":"m 446 1003 b 160 717 240 1003 160 911 l 160 686 l 44 686 l 44 494 l 160 494 l 160 0 l 381 0 l 381 494 l 551 494 l 551 686 l 381 686 l 381 717 b 493 811 381 782 415 811 b 550 810 511 811 533 811 l 550 997 b 446 1003 522 1000 481 1003 z m 899 0 l 678 0 l 678 686 l 899 686 z m 654 881 b 788 749 654 810 715 749 b 921 881 861 749 921 810 b 788 1013 921 953 861 1013 b 654 881 715 1013 654 953 z "},"ﬂ":{"ha":1075,"x_min":0,"x_max":0,"o":"m 446 1003 b 160 717 240 1003 160 911 l 160 686 l 44 686 l 44 494 l 160 494 l 160 0 l 381 0 l 381 494 l 551 494 l 551 686 l 381 686 l 381 717 b 493 811 381 782 415 811 b 550 810 511 811 533 811 l 550 997 b 446 1003 522 1000 481 1003 z m 938 0 b 672 286 740 0 672 92 l 672 1003 l 893 1003 l 893 286 b 985 192 893 221 921 192 b 1042 193 1003 192 1025 192 l 1042 6 b 938 0 1014 3 972 0 z "}," ":{"ha":375,"x_min":0,"x_max":0,"o":""},"­":{"ha":600,"x_min":0,"x_max":0,"o":"m 86 510 l 86 324 l 514 324 l 514 510 z "},"◊":{"ha":969,"x_min":0,"x_max":0,"o":"m 549 0 l 922 488 l 549 975 l 421 975 l 47 488 l 421 0 z m 485 278 l 324 488 l 485 697 l 646 488 z "},"¤":{"ha":761,"x_min":0,"x_max":0,"o":"m 382 697 l 379 697 b 285 676 346 697 314 689 l 185 775 l 76 667 l 176 565 b 161 485 167 540 161 514 b 176 403 161 456 167 428 l 76 303 l 185 194 l 285 293 b 379 272 314 279 346 272 l 382 272 b 475 293 415 272 447 279 l 576 194 l 685 303 l 583 403 b 600 485 594 428 600 456 b 583 565 600 514 594 540 l 685 667 l 576 775 l 475 676 b 382 697 447 689 415 697 z m 381 408 b 303 485 339 408 303 440 b 381 561 303 528 339 561 b 458 485 422 561 458 528 b 381 408 458 440 422 408 z "},"¦":{"ha":533,"x_min":0,"x_max":0,"o":"m 375 547 l 375 1031 l 158 1031 l 158 547 z m 375 -147 l 375 336 l 158 336 l 158 -147 z "},"ʼ":{"ha":542,"x_min":0,"x_max":0,"o":"m 163 894 b 225 797 163 850 188 813 l 183 671 l 300 671 l 369 844 b 379 894 375 858 379 882 b 271 1003 379 951 336 1003 b 163 894 208 1003 163 951 z "},"ˉ":{"ha":542,"x_min":0,"x_max":0,"o":"m 479 964 l 63 964 l 63 814 l 479 814 z "},"Ω":{"ha":1175,"x_min":0,"x_max":0,"o":"m 588 992 b 69 492 292 992 69 776 b 199 204 69 379 124 264 l 100 204 l 100 0 l 522 0 l 522 204 b 301 492 392 236 301 351 b 588 786 301 647 418 786 b 874 492 757 786 874 647 b 653 204 874 351 783 236 l 653 0 l 1075 0 l 1075 204 l 976 204 b 1106 492 1051 264 1106 379 b 588 992 1106 776 883 992 z "},"′":{"ha":417,"x_min":0,"x_max":0,"o":"m 254 674 l 365 975 l 157 975 l 51 674 z "},"″":{"ha":694,"x_min":0,"x_max":0,"o":"m 254 674 l 365 975 l 157 975 l 51 674 z m 532 674 l 643 975 l 435 975 l 329 674 z "},"∂":{"ha":954,"x_min":0,"x_max":0,"o":"m 267 843 b 583 668 419 843 547 779 b 447 703 556 690 501 703 b 94 343 258 703 94 563 b 478 -17 94 143 254 -17 b 860 357 717 -17 860 149 b 268 1025 860 814 636 1019 z m 639 343 b 478 176 639 247 569 176 b 317 343 386 176 317 247 b 478 510 317 439 386 510 b 639 343 569 510 639 439 z "},"∏":{"ha":975,"x_min":0,"x_max":0,"o":"m 51 975 l 51 771 l 178 771 l 178 0 l 408 0 l 408 771 l 567 771 l 567 0 l 797 0 l 797 771 l 924 771 l 924 975 z "},"∑":{"ha":861,"x_min":0,"x_max":0,"o":"m 281 488 l 111 204 l 111 0 l 765 0 l 765 204 l 374 204 l 543 488 l 374 771 l 753 771 l 753 975 l 111 975 l 111 771 z "},"√":{"ha":861,"x_min":0,"x_max":0,"o":"m 321 214 l 221 432 l -14 432 l 186 0 l 465 0 l 875 1007 l 640 1007 z "},"∫":{"ha":714,"x_min":0,"x_max":0,"o":"m 168 -268 b 454 18 374 -268 454 -176 l 454 756 b 567 850 454 821 489 850 b 624 849 585 850 607 850 l 624 1036 b 519 1042 596 1039 554 1042 b 233 756 314 1042 233 950 l 233 18 b 121 -76 233 -47 199 -76 b 64 -75 103 -76 81 -76 l 64 -262 b 168 -268 92 -265 133 -268 z "},"№":{"ha":1582,"x_min":0,"x_max":0,"o":"m 344 975 l 114 975 l 114 0 l 344 0 l 344 589 b 365 526 349 565 356 544 l 618 0 l 849 0 l 849 975 l 618 975 l 618 385 b 597 449 614 410 607 429 z m 1518 517 b 1224 800 1518 675 1388 800 b 929 517 1060 800 929 675 b 1224 233 929 358 1060 233 b 1518 517 1388 233 1518 358 z m 1488 175 l 960 175 l 960 0 l 1488 0 z m 1129 517 b 1224 613 1129 574 1175 613 b 1318 517 1271 613 1318 574 b 1224 421 1318 460 1271 421 b 1129 517 1175 421 1129 460 z "},"ℓ":{"ha":761,"x_min":0,"x_max":0,"o":"m 414 992 b 157 743 253 992 157 881 l 157 399 b 64 383 128 392 96 386 l 64 193 b 157 206 96 196 126 200 b 413 -17 168 67 258 -17 b 668 104 521 -17 618 33 l 531 231 b 439 174 504 193 472 174 b 374 253 394 174 374 203 l 374 275 b 671 743 558 367 671 531 b 414 992 671 881 575 992 z m 374 746 b 414 801 374 779 386 801 b 454 746 442 801 454 779 b 374 514 454 649 425 571 z "},"ﬀ":{"ha":1101,"x_min":0,"x_max":0,"o":"m 951 1003 b 665 717 746 1003 665 911 l 665 686 l 381 686 l 381 717 b 493 811 381 782 415 811 b 550 810 511 811 533 811 l 550 997 b 446 1003 522 1000 481 1003 b 160 717 240 1003 160 911 l 160 686 l 44 686 l 44 494 l 160 494 l 160 0 l 381 0 l 381 494 l 665 494 l 665 0 l 886 0 l 886 494 l 1057 494 l 1057 686 l 886 686 l 886 717 b 999 811 886 782 921 811 b 1056 810 1017 811 1039 811 l 1056 997 b 951 1003 1028 1000 986 1003 z "},"ﬃ":{"ha":1511,"x_min":0,"x_max":0,"o":"m 951 1003 b 665 717 746 1003 665 911 l 665 686 l 381 686 l 381 717 b 493 811 381 782 415 811 b 550 810 511 811 533 811 l 550 997 b 446 1003 522 1000 481 1003 b 160 717 240 1003 160 911 l 160 686 l 44 686 l 44 494 l 160 494 l 160 0 l 381 0 l 381 494 l 665 494 l 665 0 l 886 0 l 886 494 l 1057 494 l 1057 686 l 886 686 l 886 717 b 999 811 886 782 921 811 b 1056 810 1017 811 1039 811 l 1056 997 b 951 1003 1028 1000 986 1003 z m 1415 0 l 1194 0 l 1194 686 l 1415 686 z m 1171 881 b 1304 749 1171 810 1232 749 b 1438 881 1378 749 1438 810 b 1304 1013 1438 953 1378 1013 b 1171 881 1232 1013 1171 953 z "},"ﬄ":{"ha":1592,"x_min":0,"x_max":0,"o":"m 951 1003 b 665 717 746 1003 665 911 l 665 686 l 381 686 l 381 717 b 493 811 381 782 415 811 b 550 810 511 811 533 811 l 550 997 b 446 1003 522 1000 481 1003 b 160 717 240 1003 160 911 l 160 686 l 44 686 l 44 494 l 160 494 l 160 0 l 381 0 l 381 494 l 665 494 l 665 0 l 886 0 l 886 494 l 1057 494 l 1057 686 l 886 686 l 886 717 b 999 811 886 782 921 811 b 1056 810 1017 811 1039 811 l 1056 997 b 951 1003 1028 1000 986 1003 z m 1454 0 b 1189 286 1257 0 1189 92 l 1189 1003 l 1410 1003 l 1410 286 b 1501 192 1410 221 1438 192 b 1558 193 1519 192 1542 192 l 1558 6 b 1454 0 1531 3 1489 0 z "},"Δ":{"ha":992,"x_min":0,"x_max":0,"o":"m 368 975 l 11 0 l 981 0 l 624 975 z m 486 668 b 496 706 490 682 494 692 b 506 668 497 692 500 682 l 664 199 l 326 199 z "},"⁰":{"ha":536,"x_min":0,"x_max":0,"o":"m 268 614 b 503 894 408 614 503 717 b 268 1175 503 1072 408 1175 b 33 894 128 1175 33 1072 b 268 614 33 717 128 614 z m 268 756 b 210 894 228 756 210 796 b 268 1033 210 993 228 1033 b 326 894 308 1033 326 993 b 268 756 326 796 308 756 z "},"⁴":{"ha":536,"x_min":0,"x_max":0,"o":"m 436 1165 l 242 1165 l 44 843 l 44 708 l 268 708 l 268 624 l 436 624 l 436 708 l 489 708 l 489 850 l 436 850 z m 189 850 l 268 979 l 268 850 z "},"⁵":{"ha":536,"x_min":0,"x_max":0,"o":"m 83 843 l 240 825 b 272 851 243 842 257 851 b 308 803 293 851 308 840 b 274 754 308 767 294 754 b 236 796 251 754 239 768 l 63 796 b 272 614 69 692 140 614 b 481 807 408 614 481 694 b 315 983 481 914 404 983 b 264 974 296 983 275 979 l 267 1024 l 454 1024 l 454 1165 l 94 1165 z "},"⁶":{"ha":536,"x_min":0,"x_max":0,"o":"m 268 614 b 489 806 392 614 489 693 b 315 990 489 906 408 976 l 426 1165 l 242 1165 l 82 922 b 47 806 63 892 47 846 b 268 614 47 693 144 614 z m 268 756 b 221 806 243 756 221 775 b 268 854 221 835 243 854 b 314 806 292 854 314 835 b 268 756 314 775 292 756 z "},"⁷":{"ha":536,"x_min":0,"x_max":0,"o":"m 282 1024 l 108 624 l 296 624 l 469 1033 l 469 1165 l 64 1165 l 64 1024 z "},"⁸":{"ha":536,"x_min":0,"x_max":0,"o":"m 268 751 b 217 800 239 751 217 772 b 268 850 217 829 239 850 b 319 800 297 850 319 829 b 268 751 319 772 297 751 z m 268 968 b 229 1003 246 968 229 982 b 268 1039 229 1025 246 1039 b 307 1003 290 1039 307 1025 b 268 968 307 982 290 968 z m 268 614 b 492 788 403 614 492 686 b 404 914 492 844 454 893 b 468 1024 440 933 468 972 b 268 1175 468 1107 386 1175 b 68 1024 150 1175 68 1107 b 132 914 68 972 96 933 b 44 788 82 893 44 844 b 268 614 44 686 133 614 z "},"⁹":{"ha":536,"x_min":0,"x_max":0,"o":"m 268 1175 b 47 983 144 1175 47 1096 b 221 799 47 883 128 813 l 110 624 l 294 624 l 454 867 b 489 983 474 897 489 943 b 268 1175 489 1096 392 1175 z m 268 1033 b 315 983 293 1033 315 1014 b 268 935 315 954 293 935 b 222 983 244 935 222 954 b 268 1033 222 1014 244 1033 z "},"₀":{"ha":536,"x_min":0,"x_max":0,"o":"m 268 -199 b 503 82 408 -199 503 -96 b 268 363 503 260 408 363 b 33 82 128 363 33 260 b 268 -199 33 -96 128 -199 z m 268 -57 b 210 82 228 -57 210 -17 b 268 221 210 181 228 221 b 326 82 308 221 326 181 b 268 -57 326 -17 308 -57 z "},"₁":{"ha":536,"x_min":0,"x_max":0,"o":"m 385 353 l 236 353 l 94 315 l 94 179 l 208 206 l 208 -189 l 385 -189 z "},"₂":{"ha":536,"x_min":0,"x_max":0,"o":"m 240 168 b 274 221 240 206 253 221 b 303 189 293 221 303 207 b 240 94 303 157 286 139 l 86 -53 l 86 -189 l 475 -189 l 475 -47 l 303 -47 l 388 35 b 471 192 444 90 471 135 b 274 363 471 286 406 363 b 71 168 142 363 76 289 z "},"₃":{"ha":536,"x_min":0,"x_max":0,"o":"m 210 22 l 261 22 b 301 -18 288 22 301 11 b 267 -56 301 -40 289 -56 b 229 -21 242 -56 231 -43 l 56 -21 b 268 -199 60 -135 144 -199 b 474 -29 396 -199 474 -129 b 401 83 474 28 444 68 b 465 193 439 103 465 143 b 268 363 465 290 396 363 b 64 181 139 363 65 294 l 229 181 b 265 221 229 208 243 221 b 300 182 288 221 300 207 b 260 143 300 156 282 143 l 210 143 z "},"₄":{"ha":536,"x_min":0,"x_max":0,"o":"m 436 353 l 242 353 l 44 31 l 44 -104 l 268 -104 l 268 -189 l 436 -189 l 436 -104 l 489 -104 l 489 38 l 436 38 z m 189 38 l 268 167 l 268 38 z "},"₅":{"ha":536,"x_min":0,"x_max":0,"o":"m 83 31 l 240 13 b 272 39 243 29 257 39 b 308 -10 293 39 308 28 b 274 -58 308 -46 294 -58 b 236 -17 251 -58 239 -44 l 63 -17 b 272 -199 69 -121 140 -199 b 481 -6 408 -199 481 -118 b 315 171 481 101 404 171 b 264 161 296 171 275 167 l 267 211 l 454 211 l 454 353 l 94 353 z "},"₆":{"ha":536,"x_min":0,"x_max":0,"o":"m 268 -199 b 489 -7 392 -199 489 -119 b 315 178 489 93 408 164 l 426 353 l 242 353 l 82 110 b 47 -7 63 79 47 33 b 268 -199 47 -119 144 -199 z m 268 -57 b 221 -7 243 -57 221 -37 b 268 42 221 22 243 42 b 314 -7 292 42 314 22 b 268 -57 314 -37 292 -57 z "},"₇":{"ha":536,"x_min":0,"x_max":0,"o":"m 282 211 l 108 -189 l 296 -189 l 469 221 l 469 353 l 64 353 l 64 211 z "},"₈":{"ha":536,"x_min":0,"x_max":0,"o":"m 268 -61 b 217 -12 239 -61 217 -40 b 268 38 217 17 239 38 b 319 -12 297 38 319 17 b 268 -61 319 -40 297 -61 z m 268 156 b 229 190 246 156 229 169 b 268 226 229 213 246 226 b 307 190 290 226 307 213 b 268 156 307 169 290 156 z m 268 -199 b 492 -25 403 -199 492 -126 b 404 101 492 32 454 81 b 468 211 440 121 468 160 b 268 363 468 294 386 363 b 68 211 150 363 68 294 b 132 101 68 160 96 121 b 44 -25 82 81 44 32 b 268 -199 44 -126 133 -199 z "},"₉":{"ha":536,"x_min":0,"x_max":0,"o":"m 268 363 b 47 171 144 363 47 283 b 221 -14 47 71 128 0 l 110 -189 l 294 -189 l 454 54 b 489 171 474 85 489 131 b 268 363 489 283 392 363 z m 268 221 b 315 171 293 221 315 201 b 268 122 315 142 293 122 b 222 171 244 122 222 142 b 268 221 222 201 244 221 z "},"‡":{"ha":817,"x_min":0,"x_max":0,"o":"m 517 0 l 517 211 l 733 211 l 733 388 l 517 388 l 517 588 l 733 588 l 733 764 l 517 764 l 517 975 l 300 975 l 300 764 l 83 764 l 83 588 l 300 588 l 300 388 l 83 388 l 83 211 l 300 211 l 300 0 z "},"å":{"ha":917,"x_min":0,"x_max":0,"o":""},"»":{"ha":794,"x_min":0,"x_max":0,"o":"m 283 678 l 64 678 l 222 443 l 64 208 l 283 208 l 440 443 z m 574 678 l 354 678 l 513 443 l 354 208 l 574 208 l 731 443 z "}}}
